<?xml version="1.0" encoding="utf-8"?>
<svg viewBox="0 0 500 500" xmlns="http://www.w3.org/2000/svg" xmlns:bx="https://boxy-svg.com">
  <path d="M 218.694 429.202 L 218.441 429.202 L 218.314 429.104 L 218.145 428.809 L 217.976 428.613 L 218.145 428.317 L 218.609 427.629 L 218.863 427.678 L 219.074 427.875 L 219.369 428.268 L 219.369 428.366 L 219.455 428.71 L 219.286 428.956 L 218.99 429.153 L 218.694 429.202 Z M 127.274 227.833 L 127.189 228.129 L 126.937 227.982 L 126.598 227.833 L 126.429 227.833 L 126.345 227.883 L 126.345 227.44 L 126.429 227.146 L 126.641 227.146 L 126.851 227.293 L 127.274 227.833 Z M 100.545 172.464 L 100.629 172.709 L 100.249 172.169 L 99.953 171.824 L 99.953 171.48 L 99.911 171.234 L 100.038 171.186 L 100.418 171.874 L 100.545 172.267 L 100.545 172.464 Z" id="SAU99" name="" style="paint-order: fill; fill-rule: nonzero; fill: rgb(255, 233, 209);"/>
  <path d="M 333.591 424.481 L 333.55 424.531 L 331.269 426.105 L 328.82 427.776 L 328.229 428.072 L 327.595 428.169 L 324.682 428.022 L 324.429 427.825 L 322.74 425.072 L 319.953 420.548 L 319.193 420.056 L 311.465 421.285 L 302.809 420.253 L 297.826 419.663 L 293.604 419.17 L 292.674 418.777 L 289.422 416.565 L 288.326 416.319 L 281.991 416.269 L 277.937 416.221 L 277.473 416.319 L 276.249 416.909 L 275.658 416.909 L 274.306 416.614 L 273.082 416.565 L 271.139 416.762 L 269.619 417.203 L 269.239 417.253 L 268.395 416.959 L 267.972 416.86 L 267.677 417.156 L 267.381 417.745 L 267.086 418.187 L 266.705 418.384 L 266.199 418.286 L 265.396 417.843 L 265.059 417.794 L 264.637 418.04 L 264.341 418.482 L 264.087 418.973 L 263.75 419.318 L 263.285 419.417 L 263.074 419.318 L 262.947 419.269 L 262.778 418.973 L 262.863 418.482 L 262.863 418.187 L 262.736 418.138 L 262.272 418.286 L 261.891 418.335 L 261.132 418.237 L 260.372 418.335 L 259.991 418.335 L 259.611 418.187 L 258.767 417.4 L 257.754 416.073 L 257.754 415.286 L 258.302 412.827 L 258.26 411.549 L 257.88 410.025 L 257.796 409.435 L 257.838 408.795 L 258.007 407.811 L 258.514 402.353 L 258.471 401.321 L 258.26 400.336 L 257.964 399.255 L 257.754 398.174 L 257.754 397.535 L 257.964 396.846 L 258.345 395.96 L 258.851 395.173 L 262.102 391.19 L 264.341 388.929 L 264.974 388.142 L 265.227 387.749 L 265.481 387.257 L 265.945 385.928 L 266.199 385.339 L 266.621 384.749 L 267.127 384.404 L 267.592 384.16 L 268.943 383.814 L 269.83 383.47 L 270.759 382.929 L 271.646 382.241 L 272.026 381.798 L 272.321 381.355 L 272.575 380.864 L 272.786 380.225 L 272.913 379.586 L 272.997 378.651 L 272.997 377.815 L 272.871 376.685 L 272.195 373.537 L 272.195 372.947 L 272.321 372.308 L 272.786 371.423 L 273.25 370.931 L 274.601 370.144 L 274.897 369.848 L 275.109 369.505 L 275.235 368.964 L 275.319 368.177 L 275.319 365.03 L 280.894 369.112 L 282.329 369.948 L 283.385 370.439 L 285.285 370.98 L 290.436 371.373 L 337.308 365.472 L 339.926 364.588 L 333.591 424.481 Z" id="SAU1096" name="Najran" style="paint-order: fill; fill-rule: nonzero; fill: rgb(255, 233, 209);"/>
  <path d="M 339.926 364.588 L 337.308 365.472 L 290.436 371.373 L 285.285 370.98 L 283.385 370.439 L 282.329 369.948 L 280.894 369.112 L 275.319 365.03 L 274.982 364.784 L 267.127 356.277 L 265.185 352.491 L 264.046 350.917 L 263.707 350.327 L 263.581 349.54 L 263.581 348.901 L 264.383 344.672 L 264.763 343.737 L 265.945 341.574 L 266.113 341.132 L 266.241 340.59 L 266.283 340 L 266.241 339.558 L 266.113 339.017 L 265.861 338.427 L 264.172 336.313 L 262.99 334.444 L 262.356 333.214 L 261.258 331.739 L 258.345 328.641 L 253.109 319.543 L 252.897 319.003 L 252.771 318.511 L 252.728 317.971 L 252.771 317.478 L 253.573 313.84 L 253.7 312.759 L 253.446 308.579 L 253.488 308.037 L 253.657 307.546 L 253.91 307.103 L 254.502 306.168 L 254.755 305.677 L 254.967 305.185 L 255.093 304.644 L 255.135 304.103 L 255.135 303.611 L 254.164 295.203 L 254.164 294.17 L 254.713 290.482 L 254.713 290.335 L 254.375 289.941 L 253.996 289.745 L 253.573 289.548 L 251.209 289.056 L 250.744 289.007 L 250.322 289.105 L 247.957 289.843 L 247.492 289.891 L 247.027 289.843 L 246.141 289.498 L 245.718 289.155 L 245.296 288.712 L 244.832 287.777 L 244.705 287.138 L 244.705 286.499 L 244.832 283.942 L 245.127 282.81 L 245.212 282.368 L 245.127 281.877 L 244.832 281.336 L 244.283 280.794 L 243.777 280.499 L 243.312 280.302 L 242.383 280.057 L 238.033 279.663 L 234.951 279.713 L 234.191 279.566 L 233.768 279.418 L 233.346 279.172 L 232.924 278.876 L 232.545 278.484 L 232.249 278.09 L 232.037 277.745 L 229.462 270.567 L 228.871 266.928 L 228.702 266.288 L 228.195 264.96 L 227.139 260.929 L 226.717 260.142 L 226.337 259.65 L 225.915 259.257 L 225.155 258.764 L 224.943 258.518 L 224.691 258.126 L 224.563 257.634 L 224.521 256.011 L 224.691 253.601 L 224.648 251.24 L 224.901 246.913 L 225.239 244.946 L 225.323 243.962 L 225.282 243.372 L 225.027 242.537 L 224.986 242.341 L 224.986 241.947 L 225.113 241.553 L 225.408 240.963 L 226.337 239.537 L 226.421 239.44 L 226.675 238.701 L 226.928 237.571 L 226.886 236.685 L 227.266 235.701 L 228.617 233.341 L 228.871 233.046 L 229.419 232.555 L 229.884 232.259 L 230.349 232.211 L 230.771 232.309 L 232.924 233.538 L 233.811 233.932 L 235.205 234.373 L 238.836 234.817 L 239.849 234.767 L 242.678 234.276 L 243.608 234.325 L 245.17 234.867 L 245.592 234.867 L 245.973 234.719 L 246.479 234.472 L 246.944 233.98 L 247.366 233.341 L 247.661 232.407 L 247.704 231.719 L 247.535 231.08 L 247.027 230.047 L 246.817 229.506 L 246.732 229.014 L 246.817 228.376 L 247.112 227.686 L 249.055 224.638 L 250.955 222.425 L 251.419 222.031 L 251.884 221.736 L 258.598 219.917 L 259.4 219.474 L 259.864 219.031 L 260.963 217.851 L 262.398 216.769 L 262.821 216.278 L 263.2 215.54 L 263.918 213.819 L 264.468 212.935 L 264.805 212.541 L 265.059 212.295 L 265.396 212.049 L 265.777 211.803 L 266.199 211.656 L 266.664 211.557 L 267.592 211.557 L 271.857 212.196 L 276.628 211.803 L 278.445 212 L 278.867 211.951 L 279.246 211.754 L 279.458 211.36 L 279.627 210.869 L 279.711 210.328 L 279.753 209.59 L 279.711 208.705 L 279.542 207.131 L 279.331 206.247 L 279.036 205.46 L 278.486 204.329 L 278.359 203.689 L 278.445 202.952 L 278.655 201.722 L 278.528 200.936 L 278.528 200.837 L 277.009 198.427 L 275.235 194.937 L 274.728 194.247 L 273.166 192.429 L 272.828 191.888 L 272.617 191.346 L 272.532 190.854 L 272.491 190.264 L 272.913 186.921 L 272.913 185.741 L 272.786 184.561 L 272.828 183.97 L 273.208 183.38 L 273.631 183.086 L 274.137 182.889 L 274.897 182.692 L 275.15 182.544 L 275.489 182.2 L 276.924 179.692 L 277.684 178.708 L 278.571 177.774 L 279.077 177.332 L 279.584 177.037 L 280.555 176.594 L 281.02 176.349 L 281.4 176.004 L 281.695 175.562 L 281.823 175.169 L 281.907 174.824 L 281.907 174.332 L 281.864 173.891 L 281.738 173.348 L 281.568 172.758 L 281.316 172.217 L 280.977 171.677 L 280.555 171.186 L 279.753 170.349 L 278.824 169.612 L 277.557 168.972 L 277.431 168.628 L 277.219 167.694 L 277.177 167.153 L 277.219 166.612 L 277.262 166.07 L 277.473 165.235 L 277.811 164.449 L 278.359 163.365 L 278.867 162.629 L 279.5 161.891 L 279.795 161.645 L 280.977 161.154 L 281.358 161.497 L 281.78 162.137 L 282.16 162.481 L 282.582 162.727 L 283.047 162.776 L 283.554 162.481 L 283.976 162.187 L 284.778 160.81 L 284.989 160.957 L 286.721 162.383 L 287.565 163.365 L 287.903 163.908 L 288.156 164.497 L 288.705 166.809 L 288.959 167.497 L 289.465 168.235 L 289.887 168.726 L 295.588 172.561 L 296.475 172.857 L 297.953 173.004 L 298.417 173.104 L 298.839 173.398 L 299.219 173.791 L 300.486 175.562 L 302.386 177.726 L 303.273 178.413 L 303.695 178.66 L 304.541 178.857 L 307.834 178.955 L 308.72 179.151 L 309.608 179.545 L 310.874 180.381 L 315.815 184.512 L 316.279 184.758 L 316.744 184.955 L 317.209 185.052 L 317.672 185.052 L 320.671 184.462 L 321.135 184.462 L 321.6 184.658 L 322.064 184.955 L 325.358 188.741 L 325.864 189.724 L 326.245 190.215 L 326.667 190.51 L 333.086 193.51 L 333.338 193.707 L 333.591 194.05 L 333.887 194.493 L 334.056 194.986 L 334.183 195.477 L 334.31 196.314 L 334.774 230.981 L 334.943 232.112 L 335.07 232.505 L 335.365 233.046 L 335.704 233.489 L 342.797 239.489 L 347.822 245.438 L 348.624 246.618 L 349.469 248.291 L 350.313 250.504 L 350.82 252.322 L 351.116 255.421 L 350.989 261.125 L 345.289 315.56 L 339.926 364.588 Z" id="SAU1097" name="Ar Riyad" style="paint-order: fill; fill-rule: nonzero; fill: rgb(255, 233, 209);"/>
  <path d="M 376.325 165.579 L 376.747 165.776 L 378.817 166.464 L 378.436 166.612 L 378.14 166.513 L 377.845 166.366 L 377.507 166.267 L 377.169 166.317 L 376.874 166.464 L 376.578 166.71 L 376.325 166.957 L 376.156 166.76 L 376.072 166.809 L 375.776 166.612 L 375.776 166.464 L 376.072 166.317 L 376.113 166.17 L 376.03 166.022 L 375.86 165.826 L 375.649 165.727 L 375.438 165.727 L 375.016 165.924 L 374.763 166.022 L 374.508 166.317 L 374.298 166.76 L 374.129 167.153 L 374.086 166.513 L 374.467 165.826 L 375.059 165.334 L 375.649 165.186 L 375.86 165.235 L 376.03 165.334 L 376.325 165.579 Z M 333.591 424.481 L 339.926 364.588 L 345.289 315.56 L 350.989 261.125 L 351.116 255.421 L 350.82 252.322 L 350.313 250.504 L 349.469 248.291 L 348.624 246.618 L 347.822 245.438 L 342.797 239.489 L 335.704 233.489 L 335.365 233.046 L 335.07 232.505 L 334.943 232.112 L 334.774 230.981 L 334.31 196.314 L 334.183 195.477 L 334.056 194.986 L 333.887 194.493 L 333.591 194.05 L 333.338 193.707 L 333.086 193.51 L 326.667 190.51 L 326.245 190.215 L 325.864 189.724 L 325.358 188.741 L 322.064 184.955 L 321.6 184.658 L 321.135 184.462 L 320.671 184.462 L 317.672 185.052 L 317.209 185.052 L 316.744 184.955 L 316.279 184.758 L 315.815 184.512 L 310.874 180.381 L 309.608 179.545 L 308.72 179.151 L 307.834 178.955 L 304.541 178.857 L 303.695 178.66 L 303.273 178.413 L 302.386 177.726 L 300.486 175.562 L 299.219 173.791 L 298.839 173.398 L 298.417 173.104 L 297.953 173.004 L 296.475 172.857 L 295.588 172.561 L 289.887 168.726 L 289.465 168.235 L 288.959 167.497 L 288.705 166.809 L 288.156 164.497 L 287.903 163.908 L 287.565 163.365 L 286.721 162.383 L 284.989 160.957 L 284.778 160.81 L 284.525 160.465 L 284.018 159.579 L 283.85 159.04 L 283.764 158.498 L 283.764 158.056 L 283.807 157.613 L 283.976 156.826 L 284.482 155.351 L 284.905 154.467 L 288.283 149.745 L 289.255 148.073 L 296.306 132.535 L 297.488 130.42 L 299.05 128.404 L 301.035 126.24 L 303.823 124.47 L 313.281 120.29 L 313.534 119.897 L 315.645 119.405 L 320.122 120.044 L 324.598 120.684 L 332.578 121.912 L 333.677 122.109 L 334.901 124.518 L 335.999 128.059 L 336.083 128.748 L 336.168 130.173 L 336.378 130.96 L 336.632 131.747 L 336.927 132.338 L 337.392 132.83 L 337.814 133.222 L 338.195 133.665 L 338.363 134.354 L 346.555 134.256 L 353.691 134.157 L 354.156 134.747 L 354.409 134.944 L 354.916 135.239 L 355 135.436 L 355.17 136.616 L 355.17 137.5 L 355 138.09 L 354.536 137.894 L 354.451 138.042 L 354.409 138.238 L 354.79 138.287 L 355.127 138.19 L 355.381 137.943 L 355.507 137.5 L 355.718 137.697 L 355.718 137.943 L 355.507 138.435 L 355.381 139.124 L 355.339 139.419 L 355.465 140.058 L 355.718 140.598 L 357.365 142.763 L 357.492 143.057 L 357.196 143.549 L 357.069 144.041 L 357.027 144.581 L 357.154 145.122 L 357.365 145.565 L 357.999 146.598 L 358.126 146.844 L 358.04 147.286 L 358.379 147.483 L 359.054 147.876 L 359.265 147.876 L 359.941 147.876 L 360.152 147.925 L 360.532 148.172 L 360.786 148.22 L 360.87 148.319 L 360.87 148.467 L 360.701 148.762 L 360.575 148.86 L 360.279 148.762 L 359.941 148.958 L 359.856 149.154 L 359.899 149.499 L 360.068 149.844 L 360.49 150.335 L 360.954 150.778 L 361.292 150.975 L 361.335 151.072 L 361.757 151.859 L 362.559 152.794 L 362.686 153.04 L 362.474 153.58 L 362.474 153.925 L 362.474 154.22 L 362.559 154.367 L 362.517 154.564 L 362.348 154.958 L 362.095 155.4 L 361.8 155.646 L 361.926 155.351 L 361.968 155.105 L 361.926 154.467 L 361.968 154.122 L 362.095 153.876 L 362.179 153.68 L 362.095 153.285 L 361.8 153.68 L 361.461 154.663 L 361.123 154.908 L 361.504 153.777 L 361.545 153.483 L 361.419 152.99 L 361.249 152.99 L 361.081 153.384 L 360.701 155.203 L 360.701 155.646 L 360.575 155.892 L 360.617 156.04 L 360.828 155.99 L 360.954 155.892 L 361.081 155.449 L 361.249 155.253 L 361.249 156.433 L 361.335 156.728 L 361.504 156.678 L 361.714 156.481 L 361.8 156.187 L 361.926 156.481 L 361.968 156.826 L 361.926 157.268 L 362.179 157.368 L 362.39 157.268 L 362.517 156.974 L 362.602 156.728 L 362.644 157.171 L 362.602 157.368 L 362.474 157.466 L 362.602 157.711 L 362.559 157.859 L 362.432 157.958 L 362.222 157.958 L 362.474 158.695 L 362.01 158.4 L 361.8 158.449 L 361.672 158.695 L 362.095 158.892 L 362.432 158.892 L 362.728 158.646 L 362.897 158.154 L 363.023 158.154 L 363.15 158.548 L 362.939 158.843 L 362.854 159.334 L 362.939 159.776 L 363.319 159.776 L 363.445 159.579 L 363.362 159.433 L 363.193 159.236 L 363.15 159.04 L 363.319 158.793 L 363.531 158.695 L 363.995 158.548 L 364.375 158.498 L 364.67 158.646 L 365.346 159.433 L 366.106 159.876 L 366.317 160.17 L 365.895 160.514 L 366.19 160.661 L 366.444 160.613 L 366.571 160.465 L 366.444 160.121 L 366.781 160.318 L 367.162 160.416 L 367.922 160.514 L 368.09 160.465 L 368.429 160.219 L 368.598 160.121 L 368.808 160.17 L 369.189 160.318 L 369.4 160.318 L 369.822 160.465 L 370.117 160.81 L 370.582 161.597 L 370.708 161.744 L 371.004 161.941 L 371.131 162.137 L 371.173 162.334 L 371.216 162.826 L 371.258 163.023 L 371.004 163.023 L 370.877 162.924 L 370.836 162.678 L 370.877 162.334 L 370.708 162.334 L 370.286 162.924 L 369.189 162.776 L 368.808 163.219 L 368.64 163.219 L 368.513 162.776 L 368.175 162.776 L 367.415 163.219 L 367.584 163.318 L 368.007 163.465 L 368.259 163.562 L 368.681 164.005 L 368.936 164.105 L 369.146 164.399 L 369.273 164.399 L 369.611 164.005 L 369.737 163.809 L 369.822 163.562 L 370.117 163.809 L 370.286 163.908 L 370.16 164.301 L 369.949 164.497 L 369.78 164.596 L 369.611 164.841 L 369.568 165.137 L 369.527 165.776 L 369.484 166.12 L 369.695 166.022 L 369.949 165.874 L 370.16 165.677 L 370.371 165.48 L 370.582 165.383 L 370.877 165.48 L 371.258 165.727 L 371.131 166.267 L 371.173 166.76 L 371.342 167.251 L 371.385 167.792 L 371.342 168.922 L 371.469 169.415 L 371.807 169.317 L 371.807 169.809 L 371.933 170.005 L 372.145 169.956 L 372.355 169.71 L 372.271 169.317 L 372.44 169.071 L 372.736 169.021 L 373.031 169.317 L 373.158 169.12 L 373.285 169.415 L 373.2 169.71 L 373.115 170.005 L 373.031 170.349 L 372.989 170.546 L 372.82 170.596 L 372.567 170.596 L 372.355 170.596 L 372.524 170.89 L 372.989 170.989 L 373.158 171.283 L 373.369 171.186 L 373.495 170.94 L 373.707 170.399 L 373.749 170.546 L 373.876 170.596 L 373.665 171.037 L 373.834 171.136 L 374.34 170.94 L 374.636 170.989 L 375.185 171.283 L 375.522 171.283 L 374.973 170.596 L 374.805 170.202 L 375.1 169.857 L 375.354 169.857 L 375.734 170.152 L 375.903 170.251 L 376.072 170.152 L 376.452 169.71 L 376.409 170.104 L 376.199 170.743 L 376.199 171.136 L 376.325 171.726 L 376.409 172.07 L 376.535 172.217 L 376.916 172.414 L 377.254 172.907 L 378.436 175.021 L 379.027 175.856 L 379.196 176.053 L 379.745 176.349 L 379.956 176.495 L 380.252 176.84 L 380.421 177.037 L 381.688 177.726 L 382.448 178.364 L 382.912 178.464 L 383.376 178.413 L 383.884 178.512 L 384.475 178.905 L 385.066 179.594 L 386.08 181.168 L 386.417 181.905 L 387.853 183.134 L 388.19 183.528 L 388.275 184.216 L 387.345 183.282 L 386.881 182.889 L 385.783 182.741 L 385.488 182.643 L 385.319 182.347 L 385.15 181.365 L 384.981 181.561 L 384.813 182.003 L 384.686 182.396 L 384.686 183.036 L 384.77 183.331 L 384.897 183.577 L 385.108 183.823 L 385.15 183.97 L 385.066 185.544 L 385.108 185.986 L 385.657 188.002 L 385.868 188.396 L 386.206 188.789 L 386.544 189.036 L 388.275 189.724 L 388.866 190.364 L 389.204 191.248 L 389.372 192.429 L 389.331 195.28 L 389.289 195.871 L 389.077 196.412 L 388.655 196.707 L 388.655 196.314 L 388.528 196.165 L 388.275 196.264 L 388.106 196.51 L 388.233 197.198 L 388.19 198.182 L 388.022 199.215 L 387.853 199.903 L 387.557 199.657 L 387.472 199.263 L 387.472 198.87 L 387.431 198.476 L 387.304 198.182 L 387.093 197.936 L 386.924 197.788 L 386.671 197.494 L 386.502 197.445 L 386.459 196.707 L 386.332 196.314 L 386.163 196.067 L 385.952 195.772 L 385.657 195.624 L 385.446 195.723 L 384.939 196.904 L 384.77 197.051 L 384.558 197.198 L 384.644 197.592 L 384.854 197.887 L 384.981 198.034 L 385.023 198.231 L 385.192 198.624 L 385.235 198.87 L 384.897 199.066 L 384.813 199.263 L 384.854 199.657 L 384.939 200.001 L 384.981 200.395 L 384.813 200.788 L 385.15 200.936 L 385.446 200.739 L 385.572 200.345 L 385.488 199.903 L 385.699 200.001 L 385.826 200.1 L 386.08 200.444 L 386.163 200.493 L 386.332 200.493 L 386.375 200.936 L 386.544 200.984 L 387.05 201.132 L 387.262 201.477 L 387.345 201.918 L 387.599 202.41 L 387.599 202.558 L 387.176 203.05 L 387.388 204.279 L 387.853 205.607 L 388.275 206.492 L 389.458 208.165 L 389.963 209.148 L 390.175 210.376 L 390.049 210.376 L 389.711 209.148 L 389.541 208.952 L 389.331 208.901 L 389.035 208.705 L 388.781 208.508 L 388.528 208.115 L 388.19 207.82 L 387.937 207.771 L 387.853 208.262 L 388.022 208.607 L 388.528 209.049 L 388.655 209.345 L 388.824 208.952 L 388.95 208.952 L 389.711 210.82 L 391.99 214.261 L 392.498 214.803 L 392.455 214.458 L 392.329 214.065 L 392.286 213.721 L 392.455 213.574 L 392.667 213.474 L 392.751 213.524 L 392.836 214.065 L 393.089 214.361 L 393.215 214.704 L 393.595 214.95 L 394.271 215.147 L 394.44 215.443 L 394.863 216.573 L 394.694 216.769 L 394.947 217.163 L 395.199 217.851 L 395.454 218.59 L 395.538 219.129 L 395.496 219.474 L 395.411 220.064 L 395.369 220.359 L 395.411 220.704 L 395.622 221.097 L 395.707 221.539 L 396.002 222.179 L 396.045 222.573 L 395.918 223.654 L 396.087 224.687 L 396.256 225.277 L 396.467 225.572 L 396.635 225.081 L 397.143 225.572 L 397.691 226.407 L 397.945 226.801 L 398.282 227.195 L 398.663 228.915 L 399.169 229.309 L 399.549 229.751 L 399.718 230.735 L 399.761 232.309 L 399.844 232.604 L 400.013 233.046 L 400.225 233.489 L 400.436 233.685 L 400.774 233.685 L 401.196 233.193 L 402.631 236.046 L 403.603 237.275 L 404.617 237.816 L 405.799 238.013 L 406.939 237.964 L 407.994 237.571 L 409.346 236.292 L 409.388 236.538 L 410.402 236.341 L 410.613 236.488 L 410.781 236.735 L 410.95 236.881 L 411.162 236.685 L 411.203 236.881 L 411.162 237.128 L 411.077 237.325 L 410.824 237.521 L 410.866 237.816 L 411.035 238.111 L 410.95 238.947 L 411.077 239.095 L 411.415 238.947 L 411.711 238.701 L 412.259 237.571 L 412.555 237.226 L 412.808 237.029 L 412.936 236.735 L 412.936 236.145 L 413.231 236.341 L 413.611 236.39 L 413.906 236.44 L 414.033 236.784 L 414.16 237.128 L 414.371 237.177 L 414.708 237.177 L 415.004 237.374 L 415.004 237.571 L 414.666 237.767 L 414.244 237.914 L 413.906 238.111 L 413.737 238.554 L 413.695 238.554 L 413.231 239.144 L 413.146 239.34 L 413.02 239.685 L 412.936 239.833 L 411.753 240.864 L 411.499 241.308 L 411.246 241.701 L 411.162 241.947 L 411.119 242.193 L 411.077 242.783 L 411.035 242.979 L 411.035 243.471 L 410.95 243.521 L 410.74 243.521 L 410.613 243.619 L 410.571 244.159 L 410.613 244.455 L 410.697 244.552 L 411.922 244.7 L 412.386 244.552 L 412.64 244.405 L 412.808 244.209 L 412.977 244.111 L 413.272 244.062 L 414.624 244.356 L 414.962 244.7 L 415.554 245.487 L 416.44 245.783 L 416.567 246.766 L 416.524 247.405 L 416.482 249.078 L 416.609 249.716 L 416.904 250.307 L 421.169 256.797 L 424.294 261.518 L 425.349 263.141 L 429.53 269.435 L 431.599 272.582 L 434.724 277.304 L 435.822 278.926 L 436.202 279.319 L 436.708 279.516 L 445.492 280.844 L 459.384 283.007 L 467.745 284.336 L 473.319 285.172 L 476.063 285.613 L 481.638 286.499 L 487.169 287.335 L 487.465 287.286 L 488.773 285.27 L 491.687 290.875 L 494.897 297.169 L 497.598 302.382 L 497.81 302.973 L 497.81 303.513 L 496.965 306.759 L 495.868 310.841 L 494.263 316.987 L 492.194 324.707 L 491.096 328.788 L 487.971 340.542 L 486.324 346.638 L 485.776 348.802 L 484.635 353.081 L 478.175 355.737 L 467.914 359.966 L 461.073 362.817 L 457.653 364.243 L 450.812 367.047 L 447.391 368.472 L 440.509 371.275 L 437.089 372.701 L 430.248 375.504 L 426.828 376.929 L 424.59 377.815 L 415.046 379.389 L 402.209 381.552 L 399 382.045 L 395.833 382.585 L 389.415 383.667 L 386.206 384.207 L 370.16 386.864 L 367.584 387.257 L 365.726 388.093 L 361.968 390.354 L 354.705 394.682 L 348.709 398.271 L 348.245 398.665 L 346.682 400.927 L 344.866 403.583 L 341.741 408.254 L 336.801 415.434 L 336.463 416.221 L 334.183 423.597 L 333.591 424.481 Z" id="SAU1098" name="Ash Sharqiyah" style="paint-order: fill; fill-rule: nonzero; fill: rgb(255, 233, 209);"/>
  <path d="M 181.282 183.773 L 181.661 184.855 L 181.746 185.348 L 181.788 186.036 L 181.788 186.626 L 181.577 187.559 L 181.492 187.855 L 180.774 189.429 L 180.522 190.215 L 180.564 190.854 L 180.774 191.396 L 181.155 191.789 L 181.577 191.985 L 182.042 192.035 L 183.013 191.838 L 183.478 191.838 L 183.9 192.281 L 184.11 192.772 L 184.153 193.363 L 183.055 202.067 L 183.055 202.853 L 183.097 203.492 L 183.731 206.344 L 184.11 208.952 L 183.9 215.786 L 184.026 216.524 L 184.237 217.114 L 184.533 217.606 L 184.828 217.999 L 185.082 218.196 L 185.419 218.393 L 185.841 218.59 L 186.306 218.638 L 186.771 218.638 L 187.235 218.54 L 192.218 216.475 L 193.232 216.278 L 195.596 216.376 L 196.441 216.278 L 196.863 216.179 L 197.285 216.032 L 197.538 215.885 L 197.919 215.688 L 198.299 215.343 L 198.678 214.852 L 200.157 212.738 L 200.621 212.246 L 201.17 211.853 L 201.846 211.557 L 202.395 211.409 L 205.857 211.262 L 211.431 212.295 L 213.162 212.836 L 213.669 213.033 L 216.287 213.77 L 217.173 214.164 L 217.554 214.458 L 217.891 215 L 218.019 215.589 L 218.103 216.229 L 217.723 222.917 L 217.807 223.457 L 217.976 224.047 L 218.356 224.785 L 218.821 225.178 L 219.286 225.474 L 221.861 226.309 L 222.199 226.506 L 222.452 226.703 L 222.79 227.44 L 223.128 228.424 L 224.183 233.243 L 224.563 234.325 L 224.817 234.767 L 225.155 235.161 L 226.886 236.685 L 226.928 237.571 L 226.675 238.701 L 226.421 239.44 L 226.337 239.537 L 225.408 240.963 L 225.113 241.553 L 224.986 241.947 L 224.986 242.341 L 225.027 242.537 L 225.282 243.372 L 225.323 243.962 L 225.239 244.946 L 224.901 246.913 L 224.648 251.24 L 224.691 253.601 L 222.073 253.158 L 220.805 253.257 L 220.383 253.454 L 219.96 253.797 L 219.707 254.29 L 219.623 254.782 L 219.665 255.322 L 220.172 256.994 L 220.256 257.535 L 220.299 258.077 L 220.256 259.207 L 220.129 259.847 L 219.834 260.485 L 219.328 261.468 L 218.821 262.01 L 218.356 262.453 L 214.81 264.272 L 212.191 265.994 L 211.304 266.78 L 210.713 267.518 L 210.502 268.156 L 210.629 268.698 L 210.967 269.14 L 211.389 269.533 L 213.585 270.91 L 213.922 271.304 L 214.05 271.845 L 213.838 272.582 L 213.458 273.075 L 212.993 273.369 L 210.671 274.353 L 210.122 274.796 L 209.488 275.386 L 206.701 278.631 L 201.001 283.892 L 200.241 284.975 L 198.805 287.58 L 198.256 288.22 L 197.792 288.465 L 197.328 288.515 L 194.245 287.383 L 193.781 287.335 L 193.147 287.483 L 192.302 288.072 L 190.275 290.088 L 189.769 290.433 L 189.262 290.58 L 188.84 290.63 L 188.376 290.63 L 187.066 290.383 L 186.983 290.383 L 186.56 290.088 L 186.349 289.646 L 186.264 289.155 L 186.306 288.661 L 186.518 287.63 L 186.644 286.547 L 186.602 286.007 L 186.518 285.466 L 186.306 284.975 L 186.01 284.482 L 185.631 284.039 L 185.251 283.745 L 184.66 283.401 L 183.309 282.909 L 182.928 282.712 L 182.675 282.271 L 182.591 281.778 L 182.717 281.287 L 183.814 278.237 L 183.9 277.795 L 184.069 276.565 L 184.026 275.779 L 183.942 275.337 L 183.814 274.844 L 183.604 274.402 L 183.223 274.057 L 182.801 273.91 L 182.379 273.861 L 180.479 274.156 L 176.214 275.68 L 174.694 276.024 L 174.229 275.779 L 174.019 275.386 L 173.934 274.353 L 173.85 273.861 L 173.638 273.419 L 173.259 273.172 L 172.668 273.172 L 170.555 273.615 L 169.754 273.665 L 169.078 273.517 L 168.614 273.172 L 168.149 272.729 L 166.587 270.567 L 164.982 268.894 L 164.728 268.55 L 163.884 266.976 L 163.504 266.534 L 162.955 266.337 L 162.364 266.436 L 160.928 266.78 L 158.437 267.026 L 157.846 267.124 L 157.719 265.894 L 157.592 265.305 L 157.55 264.861 L 157.213 264.468 L 157.044 264.173 L 157.001 263.731 L 156.959 263.337 L 156.537 263.633 L 156.325 263.486 L 156.156 263.486 L 156.156 263.879 L 156.368 264.124 L 156.874 264.321 L 156.874 264.518 L 156.199 264.42 L 155.777 263.977 L 155.734 262.747 L 154.848 261.371 L 154.383 259.65 L 154.257 259.06 L 154.172 258.42 L 154.003 257.83 L 153.707 257.387 L 153.496 257.24 L 153.285 257.191 L 152.947 257.043 L 152.778 256.797 L 152.652 256.453 L 152.525 256.011 L 152.272 255.617 L 151.596 255.421 L 151.343 255.224 L 151.132 255.027 L 150.963 254.634 L 150.625 254.142 L 150.119 253.748 L 149.738 253.601 L 149.401 253.551 L 148.936 253.158 L 148.683 252.913 L 148.26 252.519 L 147.88 251.929 L 147.5 251.586 L 147.12 251.192 L 146.529 250.504 L 146.233 250.405 L 145.854 250.602 L 145.432 250.257 L 145.093 249.962 L 144.291 249.322 L 143.658 248.782 L 143.785 248.487 L 144.122 248.192 L 144.629 248.094 L 144.418 247.848 L 144.122 247.946 L 143.742 248.192 L 143.615 247.848 L 143.827 247.454 L 143.911 247.012 L 143.7 246.913 L 143.574 247.11 L 143.32 247.16 L 143.193 247.405 L 143.32 247.553 L 143.405 247.799 L 143.446 248.34 L 143.32 248.487 L 142.855 248.291 L 142.264 248.487 L 141.378 247.7 L 141.082 247.405 L 140.322 246.667 L 140.11 246.127 L 139.857 245.93 L 139.519 245.733 L 139.182 245.487 L 138.886 245.192 L 138.464 244.897 L 138 244.897 L 137.788 244.849 L 137.492 245.143 L 137.408 245.487 L 137.535 245.979 L 136.648 246.028 L 136.437 245.635 L 135.888 245.291 L 135.424 245.487 L 134.96 244.946 L 134.705 244.356 L 134.241 243.619 L 133.524 242.931 L 133.312 242.044 L 133.524 241.553 L 133.65 241.603 L 134.072 241.897 L 134.199 241.504 L 134.072 241.013 L 132.595 238.505 L 132.637 238.357 L 132.89 236.832 L 133.017 236.39 L 133.27 235.898 L 133.566 235.505 L 133.988 235.26 L 134.369 235.161 L 136.015 235.161 L 136.775 235.013 L 137.239 234.867 L 137.704 234.669 L 138.21 234.276 L 138.675 233.735 L 139.224 232.949 L 139.646 232.407 L 140.11 232.112 L 140.533 232.014 L 140.956 232.062 L 141.884 232.211 L 142.855 232.259 L 143.362 232.162 L 143.827 231.915 L 144.291 231.472 L 144.671 230.833 L 144.882 230.341 L 144.967 229.948 L 144.714 221.49 L 145.432 215.639 L 145.389 215.098 L 145.22 214.655 L 144.967 214.361 L 144.714 214.164 L 144.291 214.065 L 143.024 214.016 L 142.687 213.868 L 142.518 213.77 L 142.349 213.23 L 141.631 210.082 L 140.998 208.115 L 140.702 207.426 L 140.406 206.935 L 140.069 206.393 L 137.451 203.836 L 137.113 203.345 L 136.859 202.853 L 136.69 202.264 L 136.395 200.887 L 136.184 200.64 L 135.888 200.345 L 132.299 197.936 L 131.877 197.837 L 131.454 198.034 L 130.694 198.723 L 130.399 198.821 L 130.229 198.526 L 130.103 198.084 L 129.934 197.001 L 129.638 195.968 L 128.456 193.215 L 128.33 192.675 L 128.287 192.132 L 128.33 191.592 L 128.414 191.051 L 128.794 190.019 L 130.019 187.659 L 130.146 187.216 L 130.272 186.675 L 130.229 186.036 L 130.019 185.446 L 129.681 184.955 L 129.259 184.658 L 126.937 183.873 L 126.472 183.676 L 126.007 183.282 L 125.585 182.84 L 125.247 182.299 L 124.993 181.758 L 124.783 181.216 L 124.655 180.626 L 124.571 180.037 L 124.529 178.905 L 124.951 175.365 L 124.993 173.891 L 124.951 173.251 L 124.655 171.627 L 124.488 171.186 L 124.319 170.89 L 124.023 170.496 L 123.685 170.202 L 123.305 170.054 L 123.051 170.005 L 122.671 170.005 L 121.404 170.3 L 120.94 170.251 L 120.602 170.005 L 120.518 169.562 L 120.644 169.12 L 121.024 168.726 L 121.446 168.481 L 123.727 167.792 L 128.878 164.94 L 129.301 164.792 L 129.85 164.792 L 130.483 164.94 L 131.37 165.383 L 133.059 166.612 L 133.65 166.907 L 134.495 167.104 L 134.96 167.104 L 135.424 167.005 L 135.846 166.857 L 139.604 164.449 L 139.942 164.449 L 140.322 164.546 L 140.828 165.038 L 141.124 165.48 L 141.293 165.924 L 141.884 168.333 L 142.264 169.415 L 142.644 170.3 L 143.785 172.267 L 144.207 172.758 L 144.798 173.104 L 145.642 173.3 L 147.669 173.398 L 148.133 173.448 L 148.514 173.644 L 148.851 173.938 L 149.063 174.332 L 149.105 174.627 L 149.063 175.069 L 149.105 175.463 L 149.273 175.956 L 149.569 176.349 L 150.794 177.283 L 151.132 177.726 L 151.301 178.217 L 151.301 178.708 L 151.216 179.25 L 151.216 179.791 L 151.428 180.184 L 151.808 180.332 L 152.441 180.135 L 152.99 179.742 L 154.763 178.07 L 155.059 177.922 L 155.481 177.824 L 155.946 177.873 L 156.621 178.07 L 158.099 178.905 L 158.606 179.102 L 159.07 179.151 L 159.577 178.857 L 159.662 178.464 L 159.619 177.971 L 159.492 177.43 L 159.535 176.988 L 159.788 176.693 L 160.168 176.742 L 160.633 177.184 L 160.844 177.726 L 161.182 178.758 L 161.646 179.25 L 162.322 179.692 L 164.855 180.775 L 167.263 182.937 L 168.023 183.233 L 169.036 183.38 L 171.063 183.38 L 179.339 181.856 L 179.803 181.905 L 180.268 182.25 L 180.605 182.593 L 181.282 183.773 Z" id="SAU845" name="Al Madinah" style="paint-order: fill; fill-rule: nonzero; fill: rgb(185, 173, 215);"/>
  <path d="M 277.557 168.972 L 278.824 169.612 L 279.753 170.349 L 280.555 171.186 L 280.977 171.677 L 281.316 172.217 L 281.568 172.758 L 281.738 173.348 L 281.864 173.891 L 281.907 174.332 L 281.907 174.824 L 281.823 175.169 L 281.695 175.562 L 281.4 176.004 L 281.02 176.349 L 280.555 176.594 L 279.584 177.037 L 279.077 177.332 L 278.571 177.774 L 277.684 178.708 L 276.924 179.692 L 275.489 182.2 L 275.15 182.544 L 274.897 182.692 L 274.137 182.889 L 273.631 183.086 L 273.208 183.38 L 272.828 183.97 L 272.786 184.561 L 272.913 185.741 L 272.913 186.921 L 272.491 190.264 L 272.532 190.854 L 272.617 191.346 L 272.828 191.888 L 273.166 192.429 L 274.728 194.247 L 275.235 194.937 L 277.009 198.427 L 278.528 200.837 L 278.528 200.936 L 278.655 201.722 L 278.445 202.952 L 278.359 203.689 L 278.486 204.329 L 279.036 205.46 L 279.331 206.247 L 279.542 207.131 L 279.711 208.705 L 279.753 209.59 L 279.711 210.328 L 279.627 210.869 L 279.458 211.36 L 279.246 211.754 L 278.867 211.951 L 278.445 212 L 276.628 211.803 L 271.857 212.196 L 267.592 211.557 L 266.664 211.557 L 266.199 211.656 L 265.777 211.803 L 265.396 212.049 L 265.059 212.295 L 264.805 212.541 L 264.468 212.935 L 263.918 213.819 L 263.2 215.54 L 262.821 216.278 L 262.398 216.769 L 260.963 217.851 L 259.864 219.031 L 259.4 219.474 L 258.598 219.917 L 251.884 221.736 L 251.419 222.031 L 250.955 222.425 L 249.055 224.638 L 247.112 227.686 L 246.817 228.376 L 246.732 229.014 L 246.817 229.506 L 247.027 230.047 L 247.535 231.08 L 247.704 231.719 L 247.661 232.407 L 247.366 233.341 L 246.944 233.98 L 246.479 234.472 L 245.973 234.719 L 245.592 234.867 L 245.17 234.867 L 243.608 234.325 L 242.678 234.276 L 239.849 234.767 L 238.836 234.817 L 235.205 234.373 L 233.811 233.932 L 232.924 233.538 L 230.771 232.309 L 230.349 232.211 L 229.884 232.259 L 229.419 232.555 L 228.871 233.046 L 228.617 233.341 L 227.266 235.701 L 226.886 236.685 L 225.155 235.161 L 224.817 234.767 L 224.563 234.325 L 224.183 233.243 L 223.128 228.424 L 222.79 227.44 L 222.452 226.703 L 222.199 226.506 L 221.861 226.309 L 219.286 225.474 L 218.821 225.178 L 218.356 224.785 L 217.976 224.047 L 217.807 223.457 L 217.723 222.917 L 218.103 216.229 L 218.019 215.589 L 217.891 215 L 217.554 214.458 L 217.173 214.164 L 216.287 213.77 L 213.669 213.033 L 213.162 212.836 L 213.964 212 L 214.767 211.704 L 215.949 211.557 L 216.625 211.312 L 219.834 209.295 L 220.594 208.901 L 221.228 208.705 L 223.169 208.459 L 223.634 208.312 L 223.972 207.968 L 224.099 207.525 L 224.014 207.131 L 223.93 206.787 L 222.959 204.772 L 222.832 204.182 L 222.79 203.64 L 222.917 203.05 L 223.169 202.461 L 223.677 201.821 L 224.141 201.574 L 224.563 201.477 L 224.901 201.624 L 226.506 202.312 L 226.97 202.461 L 227.435 202.461 L 227.814 202.312 L 228.069 201.918 L 228.11 201.477 L 228.11 200.837 L 227.731 198.723 L 227.688 198.231 L 227.731 197.69 L 227.814 197.149 L 228.153 196.067 L 228.575 194.986 L 228.871 194.543 L 229.293 194.346 L 229.715 194.297 L 230.179 194.396 L 230.687 194.346 L 231.615 194.05 L 232.037 193.806 L 232.291 193.363 L 232.418 192.772 L 232.755 191.888 L 233.346 190.707 L 235.669 187.559 L 240.947 182.593 L 243.355 180.775 L 247.914 178.464 L 248.632 177.922 L 249.055 177.332 L 249.35 176.742 L 250.153 174.627 L 250.87 173.595 L 251.841 172.464 L 253.319 171.333 L 260.92 166.809 L 261.891 166.366 L 262.398 166.219 L 262.821 166.17 L 263.285 166.267 L 263.75 166.464 L 264.214 166.76 L 264.932 167.497 L 266.368 169.268 L 268.901 171.677 L 269.788 172.316 L 270.295 172.513 L 272.364 172.611 L 273.715 172.955 L 274.137 172.955 L 274.559 172.857 L 274.897 172.611 L 275.15 172.365 L 276.713 169.857 L 277.557 168.972 Z" id="SAU846" name="Al Quassim" style="paint-order: fill; fill-rule: nonzero; fill: rgb(255, 233, 209);"/>
  <path d="M 280.977 161.154 L 279.795 161.645 L 279.5 161.891 L 278.867 162.629 L 278.359 163.365 L 277.811 164.449 L 277.473 165.235 L 277.262 166.07 L 277.219 166.612 L 277.177 167.153 L 277.219 167.694 L 277.431 168.628 L 277.557 168.972 L 276.713 169.857 L 275.15 172.365 L 274.897 172.611 L 274.559 172.857 L 274.137 172.955 L 273.715 172.955 L 272.364 172.611 L 270.295 172.513 L 269.788 172.316 L 268.901 171.677 L 266.368 169.268 L 264.932 167.497 L 264.214 166.76 L 263.75 166.464 L 263.285 166.267 L 262.821 166.17 L 262.398 166.219 L 261.891 166.366 L 260.92 166.809 L 253.319 171.333 L 251.841 172.464 L 250.87 173.595 L 250.153 174.627 L 249.35 176.742 L 249.055 177.332 L 248.632 177.922 L 247.914 178.464 L 243.355 180.775 L 240.947 182.593 L 235.669 187.559 L 233.346 190.707 L 232.755 191.888 L 232.418 192.772 L 232.291 193.363 L 232.037 193.806 L 231.615 194.05 L 230.687 194.346 L 230.179 194.396 L 229.715 194.297 L 229.293 194.346 L 228.871 194.543 L 228.575 194.986 L 228.153 196.067 L 227.814 197.149 L 227.731 197.69 L 227.688 198.231 L 227.731 198.723 L 228.11 200.837 L 228.11 201.477 L 228.069 201.918 L 227.814 202.312 L 227.435 202.461 L 226.97 202.461 L 226.506 202.312 L 224.901 201.624 L 224.563 201.477 L 224.141 201.574 L 223.677 201.821 L 223.169 202.461 L 222.917 203.05 L 222.79 203.64 L 222.832 204.182 L 222.959 204.772 L 223.93 206.787 L 224.014 207.131 L 224.099 207.525 L 223.972 207.968 L 223.634 208.312 L 223.169 208.459 L 221.228 208.705 L 220.594 208.901 L 219.834 209.295 L 216.625 211.312 L 215.949 211.557 L 214.767 211.704 L 213.964 212 L 213.162 212.836 L 211.431 212.295 L 205.857 211.262 L 202.395 211.409 L 201.846 211.557 L 201.17 211.853 L 200.621 212.246 L 200.157 212.738 L 198.678 214.852 L 198.299 215.343 L 197.919 215.688 L 197.538 215.885 L 197.285 216.032 L 196.863 216.179 L 196.441 216.278 L 195.596 216.376 L 193.232 216.278 L 192.218 216.475 L 187.235 218.54 L 186.771 218.638 L 186.306 218.638 L 185.841 218.59 L 185.419 218.393 L 185.082 218.196 L 184.828 217.999 L 184.533 217.606 L 184.237 217.114 L 184.026 216.524 L 183.9 215.786 L 184.11 208.952 L 183.731 206.344 L 183.097 203.492 L 183.055 202.853 L 183.055 202.067 L 184.153 193.363 L 184.11 192.772 L 183.9 192.281 L 183.478 191.838 L 183.013 191.838 L 182.042 192.035 L 181.577 191.985 L 181.155 191.789 L 180.774 191.396 L 180.564 190.854 L 180.522 190.215 L 180.774 189.429 L 181.492 187.855 L 181.577 187.559 L 181.788 186.626 L 181.788 186.036 L 181.746 185.348 L 181.661 184.855 L 181.282 183.773 L 181.577 183.479 L 181.915 182.937 L 182.295 182.102 L 183.478 177.873 L 184.069 176.447 L 184.955 175.021 L 187.404 172.513 L 187.826 172.021 L 188.122 171.48 L 188.291 170.989 L 188.376 170.399 L 188.291 169.857 L 187.826 169.268 L 187.404 168.825 L 184.955 167.3 L 184.195 166.661 L 183.9 166.317 L 183.562 165.826 L 183.351 165.334 L 181.196 155.006 L 180.986 154.417 L 180.732 153.876 L 179.551 152.498 L 177.185 150.237 L 175.961 149.548 L 175.369 149.057 L 174.905 148.565 L 174.863 148.417 L 174.398 147.827 L 173.638 147.336 L 172.582 146.844 L 166.122 145.074 L 165.658 144.828 L 165.32 144.631 L 164.982 144.041 L 167.136 141.238 L 167.6 140.845 L 168.107 140.501 L 175.665 136.272 L 179.17 135.14 L 186.56 130.173 L 194.16 126.535 L 194.583 126.487 L 195.85 126.83 L 198.13 127.961 L 199.312 128.355 L 199.777 128.355 L 210.375 125.453 L 211.811 125.257 L 212.656 125.257 L 213.289 125.404 L 218.145 127.273 L 218.863 127.371 L 219.412 127.42 L 219.919 127.322 L 222.325 126.584 L 224.479 126.437 L 224.986 126.437 L 231.826 128.305 L 232.755 128.748 L 233.219 129.091 L 233.642 129.535 L 236.091 132.928 L 236.682 133.517 L 237.358 134.009 L 238.329 134.452 L 239.089 134.6 L 239.723 134.551 L 240.314 134.354 L 240.905 134.108 L 242.509 133.074 L 243.059 132.78 L 243.65 132.633 L 244.368 132.633 L 244.748 132.877 L 244.959 133.124 L 245.001 133.37 L 245.086 135.337 L 245.127 135.682 L 245.254 136.272 L 245.592 137.058 L 246.056 137.647 L 246.732 138.19 L 247.281 138.387 L 247.83 138.435 L 249.815 138.19 L 250.491 138.287 L 251.039 138.484 L 253.15 139.762 L 253.953 140.058 L 254.459 140.155 L 254.924 140.058 L 255.727 139.616 L 258.049 137.844 L 258.598 137.55 L 259.315 137.5 L 259.823 137.747 L 260.286 138.14 L 260.625 138.681 L 264.003 145.811 L 265.691 151.024 L 266.409 152.155 L 266.874 152.695 L 267.423 153.187 L 268.099 153.58 L 268.648 153.777 L 274.813 154.86 L 275.489 155.203 L 276.418 155.793 L 276.882 156.138 L 280.175 159.629 L 280.682 160.366 L 280.977 161.154 Z" id="SAU847" name="Ha'il" style="paint-order: fill; fill-rule: nonzero; fill: rgb(255, 233, 209);"/>
  <path d="M 124.951 214.606 L 125.12 215.098 L 125.374 215 L 125.501 215.885 L 125.712 216.082 L 125.669 216.179 L 125.501 216.13 L 125.416 216.376 L 125.036 216.082 L 124.91 215.786 L 124.951 215.639 L 124.741 215.589 L 124.529 215.688 L 124.36 215.491 L 124.276 215.098 L 124.107 215.098 L 123.896 215.295 L 123.854 215.098 L 123.98 214.655 L 124.192 214.361 L 124.402 214.361 L 124.698 214.409 L 124.951 214.606 Z M 121.404 214.852 L 121.784 215.048 L 122.502 215.443 L 122.84 215.54 L 123.094 215.54 L 123.262 215.688 L 123.347 215.885 L 122.925 215.885 L 122.883 216.229 L 123.051 216.524 L 123.262 216.475 L 123.516 216.13 L 123.811 215.885 L 124.107 215.885 L 124.192 215.982 L 123.811 216.229 L 123.642 216.376 L 123.431 216.672 L 123.262 217.114 L 122.925 217.36 L 122.502 217.065 L 122.165 216.573 L 121.784 216.229 L 120.94 215.147 L 120.856 215 L 120.94 214.852 L 120.898 214.704 L 120.687 214.458 L 120.475 214.065 L 120.475 213.868 L 120.687 213.967 L 120.898 214.164 L 121.236 214.655 L 121.404 214.852 Z M 122.037 212.836 L 121.953 212.935 L 121.742 212.884 L 121.489 212.59 L 121.532 212.196 L 121.784 212 L 122.08 212.049 L 122.292 212.295 L 122.292 212.59 L 122.037 212.836 Z M 119.462 212.098 L 120.433 212.884 L 120.56 213.081 L 120.644 213.377 L 120.982 213.574 L 121.278 213.721 L 121.742 214.065 L 122.46 214.753 L 122.629 215 L 122.587 215.048 L 122.418 215.196 L 122.123 214.901 L 121.869 214.704 L 121.658 214.655 L 121.446 214.212 L 121.278 214.114 L 121.151 214.164 L 120.982 214.114 L 120.771 213.868 L 120.56 213.671 L 120.391 213.622 L 120.265 213.425 L 120.265 213.18 L 120.096 213.081 L 119.8 213.033 L 119.8 212.884 L 119.631 212.59 L 119.336 212.344 L 118.956 212.393 L 118.744 212.59 L 118.575 212.639 L 118.575 212.393 L 118.786 212.049 L 119.083 211.951 L 119.462 212.098 Z M 123.516 211.606 L 123.474 211.803 L 123.22 211.754 L 123.262 211.951 L 123.22 212 L 123.347 212.393 L 123.516 213.081 L 123.431 213.277 L 123.178 212.884 L 123.051 212.787 L 122.967 212.541 L 122.925 211.312 L 123.051 211.115 L 123.22 211.016 L 123.389 211.115 L 123.516 211.409 L 123.516 211.606 Z M 116.338 210.573 L 116.887 211.213 L 117.14 211.409 L 117.392 211.459 L 117.562 211.409 L 117.689 211.853 L 117.9 211.951 L 118.026 211.901 L 118.153 211.656 L 118.322 211.704 L 118.618 211.901 L 118.575 212.098 L 118.449 212.393 L 118.322 212.491 L 118.153 212.443 L 117.9 212.196 L 116.296 211.262 L 115.873 211.115 L 115.746 211.508 L 115.535 211.36 L 115.155 210.918 L 114.902 210.573 L 114.774 210.033 L 114.944 209.59 L 115.451 209.001 L 115.662 208.656 L 115.831 208.558 L 115.873 208.705 L 115.746 209.001 L 115.408 209.59 L 115.408 209.836 L 115.577 210.033 L 115.704 210.18 L 115.915 210.23 L 116.042 210.376 L 116.338 210.573 Z M 116.718 208.262 L 116.887 208.41 L 117.097 208.312 L 117.182 208.361 L 117.056 208.607 L 116.844 208.705 L 116.591 208.656 L 116.21 208.262 L 115.999 208.115 L 115.831 207.82 L 115.746 207.033 L 115.788 206 L 116.126 205.066 L 116.633 204.525 L 116.296 205.165 L 116.126 205.607 L 116.042 206.148 L 116.21 206.59 L 116.633 207.033 L 116.887 207.131 L 116.887 207.279 L 116.718 207.623 L 116.675 207.968 L 116.718 208.262 Z M 164.982 144.041 L 165.32 144.631 L 165.658 144.828 L 166.122 145.074 L 172.582 146.844 L 173.638 147.336 L 174.398 147.827 L 174.863 148.417 L 174.905 148.565 L 175.369 149.057 L 175.961 149.548 L 177.185 150.237 L 179.551 152.498 L 180.732 153.876 L 180.986 154.417 L 181.196 155.006 L 183.351 165.334 L 183.562 165.826 L 183.9 166.317 L 184.195 166.661 L 184.955 167.3 L 187.404 168.825 L 187.826 169.268 L 188.291 169.857 L 188.376 170.399 L 188.291 170.989 L 188.122 171.48 L 187.826 172.021 L 187.404 172.513 L 184.955 175.021 L 184.069 176.447 L 183.478 177.873 L 182.295 182.102 L 181.915 182.937 L 181.577 183.479 L 181.282 183.773 L 180.605 182.593 L 180.268 182.25 L 179.803 181.905 L 179.339 181.856 L 171.063 183.38 L 169.036 183.38 L 168.023 183.233 L 167.263 182.937 L 164.855 180.775 L 162.322 179.692 L 161.646 179.25 L 161.182 178.758 L 160.844 177.726 L 160.633 177.184 L 160.168 176.742 L 159.788 176.693 L 159.535 176.988 L 159.492 177.43 L 159.619 177.971 L 159.662 178.464 L 159.577 178.857 L 159.07 179.151 L 158.606 179.102 L 158.099 178.905 L 156.621 178.07 L 155.946 177.873 L 155.481 177.824 L 155.059 177.922 L 154.763 178.07 L 152.99 179.742 L 152.441 180.135 L 151.808 180.332 L 151.428 180.184 L 151.216 179.791 L 151.216 179.25 L 151.301 178.708 L 151.301 178.217 L 151.132 177.726 L 150.794 177.283 L 149.569 176.349 L 149.273 175.956 L 149.105 175.463 L 149.063 175.069 L 149.105 174.627 L 149.063 174.332 L 148.851 173.938 L 148.514 173.644 L 148.133 173.448 L 147.669 173.398 L 145.642 173.3 L 144.798 173.104 L 144.207 172.758 L 143.785 172.267 L 142.644 170.3 L 142.264 169.415 L 141.884 168.333 L 141.293 165.924 L 141.124 165.48 L 140.828 165.038 L 140.322 164.546 L 139.942 164.449 L 139.604 164.449 L 135.846 166.857 L 135.424 167.005 L 134.96 167.104 L 134.495 167.104 L 133.65 166.907 L 133.059 166.612 L 131.37 165.383 L 130.483 164.94 L 129.85 164.792 L 129.301 164.792 L 128.878 164.94 L 123.727 167.792 L 121.446 168.481 L 121.024 168.726 L 120.644 169.12 L 120.518 169.562 L 120.602 170.005 L 120.94 170.251 L 121.404 170.3 L 122.671 170.005 L 123.051 170.005 L 123.305 170.054 L 123.685 170.202 L 124.023 170.496 L 124.319 170.89 L 124.488 171.186 L 124.655 171.627 L 124.951 173.251 L 124.993 173.891 L 124.951 175.365 L 124.529 178.905 L 124.571 180.037 L 124.655 180.626 L 124.783 181.216 L 124.993 181.758 L 125.247 182.299 L 125.585 182.84 L 126.007 183.282 L 126.472 183.676 L 126.937 183.873 L 129.259 184.658 L 129.681 184.955 L 130.019 185.446 L 130.229 186.036 L 130.272 186.675 L 130.146 187.216 L 130.019 187.659 L 128.794 190.019 L 128.414 191.051 L 128.33 191.592 L 128.287 192.132 L 128.33 192.675 L 128.456 193.215 L 129.638 195.968 L 129.934 197.001 L 130.103 198.084 L 130.229 198.526 L 130.399 198.821 L 130.694 198.723 L 131.454 198.034 L 131.877 197.837 L 132.299 197.936 L 135.888 200.345 L 136.184 200.64 L 136.395 200.887 L 136.69 202.264 L 136.859 202.853 L 137.113 203.345 L 137.451 203.836 L 140.069 206.393 L 140.406 206.935 L 140.702 207.426 L 140.998 208.115 L 141.631 210.082 L 142.349 213.23 L 142.518 213.77 L 142.687 213.868 L 143.024 214.016 L 144.291 214.065 L 144.714 214.164 L 144.967 214.361 L 145.22 214.655 L 145.389 215.098 L 145.432 215.639 L 144.714 221.49 L 144.967 229.948 L 144.882 230.341 L 144.671 230.833 L 144.291 231.472 L 143.827 231.915 L 143.362 232.162 L 142.855 232.259 L 141.884 232.211 L 140.956 232.062 L 140.533 232.014 L 140.11 232.112 L 139.646 232.407 L 139.224 232.949 L 138.675 233.735 L 138.21 234.276 L 137.704 234.669 L 137.239 234.867 L 136.775 235.013 L 136.015 235.161 L 134.369 235.161 L 133.988 235.26 L 133.566 235.505 L 133.27 235.898 L 133.017 236.39 L 132.89 236.832 L 132.637 238.357 L 132.595 238.505 L 131.328 236.341 L 130.103 234.325 L 129.512 233.44 L 129.512 232.702 L 129.555 232.555 L 129.596 232.259 L 129.555 232.014 L 129.512 231.866 L 129.343 231.768 L 129.09 232.062 L 128.878 232.112 L 128.541 231.866 L 128.287 231.424 L 127.907 230.538 L 128.414 230.538 L 128.878 230.637 L 129.343 230.637 L 129.85 230.441 L 130.103 229.997 L 130.103 228.719 L 130.568 227.637 L 130.483 227.047 L 130.103 225.965 L 129.977 225.325 L 130.103 223.802 L 130.06 223.26 L 129.977 222.67 L 129.807 222.179 L 129.555 221.687 L 129.174 221.146 L 128.963 220.901 L 128.752 220.752 L 128.541 220.508 L 128.372 220.064 L 128.203 219.868 L 127.781 219.474 L 127.401 218.983 L 127.063 218.393 L 126.809 217.803 L 126.767 217.556 L 126.725 216.966 L 126.683 216.769 L 126.556 216.524 L 126.26 216.13 L 126.134 215.885 L 126.514 215.589 L 126.218 215 L 125.332 213.917 L 125.163 213.622 L 124.824 212.491 L 124.741 212.344 L 124.445 212.098 L 124.36 211.951 L 124.319 211.803 L 124.36 211.508 L 124.107 211.066 L 123.811 210.278 L 123.685 210.033 L 123.431 209.787 L 122.84 209.491 L 122.587 209.345 L 121.784 207.869 L 121.278 207.131 L 120.856 207.083 L 120.813 207.377 L 120.94 207.672 L 121.024 207.918 L 120.813 208.065 L 120.56 208.017 L 119.927 207.476 L 119.631 207.377 L 119.462 207.23 L 118.997 206.541 L 118.871 206.296 L 118.828 206.148 L 118.871 205.607 L 118.828 205.46 L 118.575 205.361 L 118.449 205.263 L 118.237 204.575 L 118.195 203.985 L 118.364 203.394 L 118.786 202.853 L 119.083 202.312 L 119.124 201.574 L 119.04 200.887 L 118.871 200.247 L 118.406 199.657 L 117.773 199.263 L 117.056 199.066 L 116.379 199.018 L 115.662 198.723 L 115.197 197.985 L 113.93 194.444 L 113.466 193.51 L 112.621 192.132 L 111.143 187.904 L 109.538 184.561 L 108.568 183.134 L 107.428 181.905 L 106.878 181.216 L 106.583 180.085 L 105.992 178.857 L 105.569 177.234 L 105.232 177.332 L 104.936 177.037 L 104.472 176.152 L 103.163 174.775 L 101.558 172.365 L 101.01 171.086 L 100.924 170.84 L 100.924 170.596 L 100.967 170.399 L 101.136 170.005 L 101.22 169.759 L 101.093 169.465 L 100.629 168.628 L 98.94 166.267 L 98.011 165.531 L 97.758 165.235 L 97.293 164.546 L 96.744 163.514 L 96.153 162.826 L 95.351 161.203 L 95.14 160.514 L 95.097 159.973 L 95.056 159.04 L 94.928 158.548 L 94.76 158.203 L 94.126 157.368 L 93.747 156.678 L 93.24 155.057 L 92.818 154.367 L 92.648 154.22 L 92.226 154.024 L 92.099 153.925 L 91.973 153.728 L 91.888 153.384 L 91.677 152.892 L 91.593 152.105 L 91.382 151.762 L 90.368 150.384 L 90.03 149.745 L 89.861 149.499 L 89.524 149.303 L 88.552 148.417 L 88.552 148.614 L 88.426 148.614 L 88.215 148.22 L 88.468 147.976 L 88.933 147.729 L 89.27 147.483 L 89.481 147.63 L 89.439 147.483 L 89.27 147.04 L 89.143 146.992 L 88.595 146.844 L 88.426 146.795 L 88.299 146.795 L 88.299 146.942 L 88.173 146.942 L 87.961 146.598 L 87.834 146.45 L 87.665 146.402 L 87.328 146.45 L 87.159 146.402 L 86.906 146.107 L 85.977 145.319 L 85.765 145.515 L 85.343 145.468 L 85.386 145.614 L 85.343 145.762 L 85.132 145.565 L 84.879 145.468 L 84.667 145.614 L 84.456 145.762 L 83.865 145.959 L 83.697 146.057 L 83.569 146.205 L 83.485 146.402 L 83.359 146.402 L 83.359 146.254 L 83.232 146.254 L 82.937 146.303 L 82.556 146.205 L 82.134 146.254 L 81.88 146.598 L 81.797 146.45 L 81.712 146.402 L 81.712 146.254 L 81.88 146.254 L 81.88 146.057 L 81.797 145.861 L 81.88 145.713 L 82.26 145.515 L 82.092 145.417 L 81.88 145.368 L 81.67 145.417 L 81.458 145.515 L 81.458 145.713 L 81.585 145.713 L 81.585 145.861 L 81.374 145.959 L 81.205 146.155 L 81.036 146.598 L 80.951 146.5 L 80.783 146.402 L 80.951 146.107 L 81.12 145.959 L 81.332 145.861 L 81.332 145.515 L 81.036 145.515 L 80.825 145.565 L 80.656 145.713 L 80.614 146.057 L 80.529 145.959 L 80.36 146.057 L 80.36 145.713 L 80.233 145.713 L 80.233 145.861 L 80.065 145.861 L 79.981 145.664 L 79.896 145.515 L 79.77 145.515 L 79.685 145.713 L 79.474 145.515 L 79.262 145.122 L 79.136 144.778 L 78.925 145.024 L 78.84 145.122 L 78.587 144.926 L 78.502 145.024 L 78.502 145.319 L 78.418 145.515 L 77.996 145.762 L 77.869 145.861 L 77.869 146.057 L 78.292 146.402 L 78.292 146.598 L 78.165 146.598 L 78.038 146.795 L 77.869 146.598 L 77.785 147.04 L 77.785 147.385 L 77.615 147.63 L 77.193 147.68 L 77.236 147.582 L 77.363 147.483 L 77.193 147.336 L 77.109 146.942 L 77.067 146.598 L 77.067 145.959 L 76.898 145.762 L 76.433 146.008 L 76.518 145.713 L 76.391 145.515 L 76.687 145.024 L 76.856 144.828 L 77.067 144.729 L 77.067 144.581 L 77.193 144.533 L 77.489 144.238 L 77.363 144.041 L 77.489 143.795 L 77.742 143.697 L 77.785 143.992 L 77.954 144.041 L 78.08 143.992 L 78.165 143.697 L 78.038 143.697 L 78.038 143.5 L 77.911 143.353 L 77.911 143.156 L 78.08 143.057 L 78.292 142.96 L 78.292 142.763 L 78.249 142.566 L 78.418 141.336 L 78.629 141.434 L 78.714 141.434 L 78.714 141.139 L 78.545 141.287 L 78.418 141.139 L 78.84 140.698 L 79.22 139.812 L 79.558 138.877 L 79.77 137.599 L 80.15 136.911 L 80.276 136.124 L 80.445 135.682 L 80.994 134.551 L 80.867 133.321 L 80.825 132.091 L 80.487 130.863 L 80.867 129.239 L 81.12 128.404 L 81.458 127.715 L 81.458 127.518 L 81.332 127.518 L 81.67 126.83 L 81.712 126.535 L 81.585 126.24 L 81.585 126.044 L 81.838 125.257 L 81.797 125.01 L 83.485 124.961 L 84.161 124.814 L 84.879 124.863 L 86.483 125.305 L 89.355 125.65 L 89.82 125.551 L 90.2 125.305 L 90.874 124.569 L 91.551 124.125 L 92.395 123.83 L 96.533 122.896 L 99.193 122.7 L 100.756 122.355 L 102.065 122.355 L 105.95 123.486 L 106.456 123.782 L 107.343 124.47 L 107.976 125.158 L 113.129 133.026 L 113.255 133.174 L 113.424 133.271 L 114.226 133.616 L 114.733 133.616 L 115.028 133.616 L 117.224 132.633 L 122.037 131.403 L 123.642 131.403 L 124.783 131.6 L 127.823 132.78 L 129.469 133.174 L 132.933 133.419 L 133.481 133.271 L 133.946 132.977 L 134.283 132.535 L 134.537 131.993 L 135.297 129.583 L 135.551 128.994 L 135.846 128.501 L 136.268 128.059 L 137.619 127.077 L 138.844 125.699 L 139.266 125.502 L 139.731 125.6 L 140.069 125.944 L 140.322 126.487 L 140.406 127.077 L 140.196 131.354 L 140.279 133.714 L 140.406 135.239 L 140.618 136.369 L 140.913 137.254 L 141.167 137.796 L 141.462 138.387 L 141.842 138.877 L 143.151 140.155 L 144.08 140.795 L 146.275 141.68 L 147.5 141.976 L 151.512 142.467 L 152.23 142.419 L 152.905 142.173 L 153.412 141.876 L 154.087 141.68 L 154.552 141.779 L 155.228 142.27 L 155.651 142.467 L 155.988 142.467 L 156.874 142.467 L 157.466 144.041 L 157.761 144.434 L 158.183 144.778 L 158.691 144.877 L 159.155 144.778 L 159.662 144.533 L 161.773 143.303 L 162.364 143.107 L 163.04 143.008 L 163.546 143.008 L 163.884 143.156 L 164.179 143.303 L 164.982 144.041 Z" id="SAU848" name="Tabuk" style="paint-order: fill; fill-rule: nonzero; fill: rgb(255, 233, 209);"/>
  <path d="M 313.534 119.897 L 313.281 120.29 L 303.823 124.47 L 301.035 126.24 L 299.05 128.404 L 297.488 130.42 L 296.306 132.535 L 289.255 148.073 L 288.283 149.745 L 284.905 154.467 L 284.482 155.351 L 283.976 156.826 L 283.807 157.613 L 283.764 158.056 L 283.764 158.498 L 283.85 159.04 L 284.018 159.579 L 284.525 160.465 L 284.778 160.81 L 283.976 162.187 L 283.554 162.481 L 283.047 162.776 L 282.582 162.727 L 282.16 162.481 L 281.78 162.137 L 281.358 161.497 L 280.977 161.154 L 280.682 160.366 L 280.175 159.629 L 276.882 156.138 L 276.418 155.793 L 275.489 155.203 L 274.813 154.86 L 268.648 153.777 L 268.099 153.58 L 267.423 153.187 L 266.874 152.695 L 266.409 152.155 L 265.691 151.024 L 264.003 145.811 L 260.625 138.681 L 260.286 138.14 L 259.823 137.747 L 259.315 137.5 L 258.598 137.55 L 258.049 137.844 L 255.727 139.616 L 254.924 140.058 L 254.459 140.155 L 253.953 140.058 L 253.15 139.762 L 251.039 138.484 L 250.491 138.287 L 249.815 138.19 L 247.83 138.435 L 247.281 138.387 L 246.732 138.19 L 246.056 137.647 L 245.592 137.058 L 245.254 136.272 L 245.127 135.682 L 245.086 135.337 L 245.001 133.37 L 244.959 133.124 L 244.748 132.877 L 244.368 132.633 L 243.65 132.633 L 243.059 132.78 L 242.509 133.074 L 240.905 134.108 L 240.314 134.354 L 239.723 134.551 L 239.089 134.6 L 238.329 134.452 L 237.358 134.009 L 236.682 133.517 L 236.091 132.928 L 233.642 129.535 L 233.219 129.091 L 232.755 128.748 L 231.826 128.305 L 224.986 126.437 L 224.479 126.437 L 222.325 126.584 L 219.919 127.322 L 219.412 127.42 L 218.863 127.371 L 218.145 127.273 L 213.289 125.404 L 212.656 125.257 L 211.811 125.257 L 210.375 125.453 L 199.777 128.355 L 199.312 128.355 L 198.13 127.961 L 195.85 126.83 L 198.678 123.585 L 199.017 122.995 L 199.186 122.503 L 199.312 121.961 L 199.819 113.061 L 199.903 112.472 L 200.03 111.881 L 200.325 111.341 L 200.705 110.799 L 201.213 110.258 L 203.366 108.291 L 220.087 96.096 L 221.734 94.572 L 222.621 93.491 L 222.959 92.9 L 223.086 92.408 L 222.917 91.867 L 222.578 91.376 L 219.581 88.671 L 218.609 87.54 L 218.229 86.949 L 217.681 85.77 L 216.751 83.311 L 216.498 82.868 L 215.991 82.131 L 215.611 81.639 L 214.851 81.097 L 214.26 80.852 L 211.896 80.458 L 210.291 80.458 L 209.193 80.262 L 208.517 80.016 L 207.969 79.672 L 204 75.935 L 203.366 75.59 L 202.564 75.345 L 200.621 75.345 L 199.396 75.541 L 188.46 75.246 L 186.602 74.754 L 185.927 74.46 L 185.378 74.115 L 183.942 72.591 L 183.478 72.198 L 182.97 71.853 L 182.337 71.656 L 168.783 69.197 L 166.122 69.148 L 160 70.23 L 151.089 71.262 L 150.119 71.165 L 149.232 70.968 L 148.767 70.722 L 148.345 70.427 L 147.923 69.984 L 147.542 69.494 L 146.867 68.067 L 146.529 67.132 L 145.938 65.952 L 145.262 64.871 L 144.671 64.181 L 142.94 62.707 L 142.644 62.216 L 142.475 61.773 L 142.433 61.429 L 142.306 60.542 L 142.18 58.871 L 142.264 57.937 L 144.671 47.512 L 152.947 44.709 L 164.222 40.874 L 164.94 40.529 L 167.305 37.873 L 167.685 37.53 L 168.107 37.382 L 172.076 38.169 L 179.973 39.742 L 185.546 40.874 L 192.387 42.398 L 193.442 42.889 L 194.583 43.676 L 198.383 46.331 L 200.114 47.561 L 203.661 50.02 L 208.897 53.659 L 214.176 57.347 L 221.185 62.216 L 226.506 65.903 L 227.814 67.23 L 232.882 72.395 L 234.571 74.115 L 240.272 79.869 L 242.172 81.787 L 246.056 85.474 L 249.562 88.868 L 253.615 92.704 L 260.498 99.243 L 262.778 101.407 L 269.661 107.898 L 273.462 111.537 L 275.404 113.307 L 277.305 115.127 L 278.824 116.552 L 279.331 116.798 L 291.661 118.076 L 293.688 118.323 L 312.141 120.24 L 313.534 119.897 Z" id="SAU861" name="Al Hudud ash Shamaliyah" style="paint-order: fill; fill-rule: nonzero; fill: rgb(255, 233, 209);"/>
  <path d="M 195.85 126.83 L 194.583 126.487 L 194.16 126.535 L 186.56 130.173 L 179.17 135.14 L 175.665 136.272 L 168.107 140.501 L 167.6 140.845 L 167.136 141.238 L 164.982 144.041 L 164.179 143.303 L 163.884 143.156 L 163.546 143.008 L 163.04 143.008 L 162.364 143.107 L 161.773 143.303 L 159.662 144.533 L 159.155 144.778 L 158.691 144.877 L 158.183 144.778 L 157.761 144.434 L 157.466 144.041 L 156.874 142.467 L 155.988 142.467 L 155.651 142.467 L 155.228 142.27 L 154.552 141.779 L 154.087 141.68 L 153.412 141.876 L 152.905 142.173 L 152.23 142.419 L 151.512 142.467 L 147.5 141.976 L 146.275 141.68 L 144.08 140.795 L 143.151 140.155 L 141.842 138.877 L 141.462 138.387 L 141.167 137.796 L 140.913 137.254 L 140.618 136.369 L 140.406 135.239 L 140.279 133.714 L 140.196 131.354 L 140.406 127.077 L 140.322 126.487 L 140.069 125.944 L 139.731 125.6 L 139.266 125.502 L 138.844 125.699 L 137.619 127.077 L 136.268 128.059 L 135.846 128.501 L 135.551 128.994 L 135.297 129.583 L 134.537 131.993 L 134.283 132.535 L 133.946 132.977 L 133.481 133.271 L 132.933 133.419 L 129.469 133.174 L 127.823 132.78 L 124.783 131.6 L 123.642 131.403 L 122.037 131.403 L 117.224 132.633 L 115.028 133.616 L 114.733 133.616 L 114.226 133.616 L 113.424 133.271 L 113.255 133.174 L 113.129 133.026 L 107.976 125.158 L 107.343 124.47 L 106.456 123.782 L 105.95 123.486 L 102.065 122.355 L 100.756 122.355 L 99.193 122.7 L 96.533 122.896 L 92.395 123.83 L 91.551 124.125 L 90.874 124.569 L 90.2 125.305 L 89.82 125.551 L 89.355 125.65 L 86.483 125.305 L 84.879 124.863 L 84.161 124.814 L 83.485 124.961 L 81.797 125.01 L 81.797 124.912 L 81.458 124.765 L 81.458 124.617 L 81.754 124.026 L 82.049 122.896 L 82.219 121.765 L 82.007 121.126 L 82.007 120.732 L 82.219 120.24 L 82.429 119.65 L 82.81 117.291 L 82.894 116.945 L 83.105 116.355 L 83.105 116.158 L 83.105 115.765 L 83.316 115.569 L 83.781 115.274 L 83.654 114.832 L 83.569 114.24 L 83.654 113.847 L 83.907 113.996 L 83.95 113.799 L 84.034 113.799 L 83.907 113.406 L 83.865 112.963 L 83.907 112.569 L 86.146 113.012 L 88.51 113.504 L 94.422 114.684 L 97.378 115.274 L 100.883 116.012 L 105.274 116.898 L 105.823 116.848 L 106.329 116.601 L 108.525 114.536 L 114.479 108.734 L 117.942 101.899 L 119.04 99.685 L 119.505 99.095 L 120.053 98.751 L 123.6 97.916 L 129.343 96.538 L 134.369 95.309 L 134.791 94.866 L 135.677 92.31 L 137.07 88.375 L 137.661 86.704 L 137.915 86.212 L 138.38 85.77 L 142.94 82.769 L 144.418 81.787 L 144.587 81.639 L 139.182 74.263 L 136.986 71.262 L 134.537 67.87 L 129.343 61.28 L 124.149 54.691 L 134.072 51.2 L 143.953 47.758 L 144.671 47.512 L 142.264 57.937 L 142.18 58.871 L 142.306 60.542 L 142.433 61.429 L 142.475 61.773 L 142.644 62.216 L 142.94 62.707 L 144.671 64.181 L 145.262 64.871 L 145.938 65.952 L 146.529 67.132 L 146.867 68.067 L 147.542 69.494 L 147.923 69.984 L 148.345 70.427 L 148.767 70.722 L 149.232 70.968 L 150.119 71.165 L 151.089 71.262 L 160 70.23 L 166.122 69.148 L 168.783 69.197 L 182.337 71.656 L 182.97 71.853 L 183.478 72.198 L 183.942 72.591 L 185.378 74.115 L 185.927 74.46 L 186.602 74.754 L 188.46 75.246 L 199.396 75.541 L 200.621 75.345 L 202.564 75.345 L 203.366 75.59 L 204 75.935 L 207.969 79.672 L 208.517 80.016 L 209.193 80.262 L 210.291 80.458 L 211.896 80.458 L 214.26 80.852 L 214.851 81.097 L 215.611 81.639 L 215.991 82.131 L 216.498 82.868 L 216.751 83.311 L 217.681 85.77 L 218.229 86.949 L 218.609 87.54 L 219.581 88.671 L 222.578 91.376 L 222.917 91.867 L 223.086 92.408 L 222.959 92.9 L 222.621 93.491 L 221.734 94.572 L 220.087 96.096 L 203.366 108.291 L 201.213 110.258 L 200.705 110.799 L 200.325 111.341 L 200.03 111.881 L 199.903 112.472 L 199.819 113.061 L 199.312 121.961 L 199.186 122.503 L 199.017 122.995 L 198.678 123.585 L 195.85 126.83 Z" id="SAU862" name="Al Jawf" style="paint-order: fill; fill-rule: nonzero; fill: rgb(255, 233, 209);"/>
  <path d="M 225.619 337.443 L 224.648 341.278 L 224.691 341.918 L 224.86 342.655 L 225.323 343.247 L 225.577 343.689 L 225.661 344.278 L 225.535 344.918 L 225.07 345.654 L 224.648 346.147 L 222.283 348.065 L 221.861 348.556 L 221.523 349.196 L 221.396 349.884 L 221.27 351.654 L 220.974 352.885 L 218.947 357.997 L 218.398 358.292 L 217.723 358.441 L 215.823 358.441 L 215.443 358.489 L 215.063 358.687 L 214.894 358.884 L 214.641 359.227 L 214.091 360.309 L 212.824 364.292 L 212.359 366.947 L 212.191 367.44 L 211.937 367.882 L 211.558 368.226 L 211.178 368.472 L 210.755 368.62 L 210.291 368.718 L 209.827 368.718 L 209.278 368.57 L 208.813 368.325 L 208.391 367.931 L 207.123 365.964 L 206.66 365.423 L 205.097 364.439 L 204.886 364.243 L 204.591 363.899 L 204.337 363.407 L 204.253 362.867 L 204.253 362.424 L 204.337 360.359 L 204.295 359.866 L 203.914 358.245 L 203.914 357.703 L 204.126 355.196 L 204.126 354.653 L 204 354.113 L 203.788 353.621 L 203.535 353.229 L 203.281 352.982 L 201.804 352.441 L 201.423 352.196 L 201.085 351.802 L 200.959 351.36 L 201.001 350.867 L 201.296 350.424 L 202.817 348.556 L 203.281 348.163 L 203.788 347.868 L 204.379 347.672 L 206.322 347.278 L 206.787 347.131 L 207.25 346.885 L 207.757 346.393 L 208.011 345.901 L 208.56 344.278 L 209.953 341.278 L 210.122 340.639 L 210.122 340.394 L 210.08 339.657 L 209.7 338.181 L 209.531 337.149 L 209.531 336.607 L 209.573 336.116 L 209.658 335.673 L 209.784 335.378 L 209.953 335.034 L 210.291 334.641 L 210.671 334.248 L 211.093 334.051 L 211.6 334.001 L 212.064 334.1 L 212.698 334.394 L 213.12 334.837 L 213.458 335.329 L 214.05 337.394 L 214.302 337.886 L 214.555 338.329 L 214.851 338.624 L 215.105 338.721 L 215.527 338.721 L 216.118 338.525 L 217.132 338.082 L 217.638 337.886 L 218.314 337.787 L 220.425 337.787 L 220.89 337.64 L 221.312 337.394 L 223.169 336.165 L 223.592 336.017 L 224.099 336.116 L 224.479 336.313 L 225.619 337.443 Z" id="SAU885" name="Al Bahah" style="paint-order: fill; fill-rule: nonzero; fill: rgb(255, 233, 209);"/>
  <path d="M 275.319 365.03 L 275.319 368.177 L 275.235 368.964 L 275.109 369.505 L 274.897 369.848 L 274.601 370.144 L 273.25 370.931 L 272.786 371.423 L 272.321 372.308 L 272.195 372.947 L 272.195 373.537 L 272.871 376.685 L 272.997 377.815 L 272.997 378.651 L 272.913 379.586 L 272.786 380.225 L 272.575 380.864 L 272.321 381.355 L 272.026 381.798 L 271.646 382.241 L 270.759 382.929 L 269.83 383.47 L 268.943 383.814 L 267.592 384.16 L 267.127 384.404 L 266.621 384.749 L 266.199 385.339 L 265.945 385.928 L 265.481 387.257 L 265.227 387.749 L 264.974 388.142 L 264.341 388.929 L 262.102 391.19 L 258.851 395.173 L 258.345 395.96 L 257.964 396.846 L 257.754 397.535 L 257.754 398.174 L 257.964 399.255 L 258.26 400.336 L 258.471 401.321 L 258.514 402.353 L 258.007 407.811 L 257.838 408.795 L 257.796 409.435 L 257.88 410.025 L 258.26 411.549 L 258.302 412.827 L 257.754 415.286 L 257.754 416.073 L 257.373 415.581 L 256.528 414.991 L 255.05 414.204 L 254.713 414.106 L 254.037 414.106 L 253.7 414.008 L 253.235 414.057 L 252.813 414.254 L 251.841 414.991 L 250.153 412.04 L 249.815 411.549 L 249.435 411.156 L 247.873 410.516 L 247.492 410.172 L 247.197 409.681 L 246.564 408.157 L 246.268 407.614 L 245.803 407.024 L 244.241 405.549 L 243.903 404.959 L 243.777 404.32 L 243.86 403.337 L 243.734 402.844 L 243.481 402.501 L 242.721 402.305 L 242.552 402.353 L 241.623 402.992 L 240.778 403.681 L 240.441 404.123 L 240.146 404.615 L 239.723 405.599 L 238.794 409.631 L 238.624 410.074 L 238.329 410.468 L 237.991 410.614 L 237.569 410.614 L 237.105 410.418 L 236.64 410.025 L 234.74 407.763 L 234.402 407.173 L 234.191 406.631 L 234.022 406.091 L 233.768 405.599 L 233.388 405.107 L 232.84 404.762 L 232.333 404.615 L 229.208 404.565 L 228.744 404.468 L 228.322 404.173 L 227.9 403.583 L 227.688 403.091 L 227.435 402.206 L 227.309 401.911 L 227.013 401.518 L 226.464 401.173 L 225.999 401.026 L 225.577 400.976 L 224.226 401.222 L 223.846 401.075 L 223.508 400.73 L 223.339 400.042 L 223.297 399.501 L 223.339 398.911 L 223.761 395.96 L 223.719 395.469 L 223.634 395.027 L 223.423 394.633 L 222.664 394.387 L 220.383 394.584 L 221.101 391.485 L 221.185 390.797 L 221.185 390.158 L 221.016 389.42 L 219.665 384.553 L 219.455 384.06 L 219.116 383.667 L 218.736 383.421 L 218.314 383.225 L 217.469 383.028 L 216.582 382.979 L 214.387 382.979 L 214.007 382.88 L 213.627 382.634 L 213.289 382.192 L 213.036 381.699 L 212.867 381.208 L 212.782 380.717 L 212.656 379.684 L 212.782 373.93 L 212.867 373.488 L 213.036 373.242 L 213.331 373.439 L 213.669 373.734 L 214.091 373.98 L 214.472 373.98 L 214.851 373.783 L 215.865 372.898 L 216.751 372.259 L 217.173 372.111 L 217.638 372.013 L 218.061 372.013 L 220.299 372.259 L 220.551 372.259 L 220.89 372.16 L 221.228 372.013 L 221.608 371.669 L 221.903 371.226 L 222.073 370.783 L 222.747 368.226 L 222.747 367.637 L 222.621 367.047 L 221.776 365.375 L 221.692 364.882 L 221.608 364.194 L 221.65 363.604 L 222.283 360.407 L 222.325 359.916 L 222.283 359.424 L 222.156 358.884 L 221.903 358.391 L 221.608 357.949 L 221.354 357.752 L 221.059 357.605 L 220.679 357.506 L 219.834 357.605 L 218.947 357.997 L 220.974 352.885 L 221.27 351.654 L 221.396 349.884 L 221.523 349.196 L 221.861 348.556 L 222.283 348.065 L 224.648 346.147 L 225.07 345.654 L 225.535 344.918 L 225.661 344.278 L 225.577 343.689 L 225.323 343.247 L 224.86 342.655 L 224.691 341.918 L 224.648 341.278 L 225.619 337.443 L 225.999 338.132 L 228.026 343.049 L 228.364 343.541 L 228.744 343.934 L 229.166 344.229 L 229.588 344.426 L 230.179 344.377 L 230.855 344.082 L 231.911 343.393 L 232.587 342.852 L 237.654 337.443 L 241.623 334.935 L 242.214 334.394 L 242.974 333.461 L 243.481 333.067 L 244.029 332.821 L 244.748 332.624 L 245.973 332.624 L 246.31 332.526 L 246.69 332.379 L 247.914 331.789 L 248.548 331.543 L 249.435 331.443 L 249.984 331.493 L 250.491 331.592 L 251.8 332.133 L 252.391 332.083 L 253.066 331.789 L 256.233 329.625 L 258.345 328.641 L 261.258 331.739 L 262.356 333.214 L 262.99 334.444 L 264.172 336.313 L 265.861 338.427 L 266.113 339.017 L 266.241 339.558 L 266.283 340 L 266.241 340.59 L 266.113 341.132 L 265.945 341.574 L 264.763 343.737 L 264.383 344.672 L 263.581 348.901 L 263.581 349.54 L 263.707 350.327 L 264.046 350.917 L 265.185 352.491 L 267.127 356.277 L 274.982 364.784 L 275.319 365.03 Z" id="SAU886" name="`Asir" style="paint-order: fill; fill-rule: nonzero; fill: rgb(255, 233, 209);"/>
  <path d="M 222.959 432.841 L 223.086 432.939 L 223.803 432.841 L 224.057 433.285 L 224.437 433.285 L 224.86 433.136 L 225.196 433.136 L 225.45 433.432 L 225.45 433.678 L 225.661 433.678 L 226.253 433.382 L 225.704 433.235 L 225.408 432.742 L 225.661 432.301 L 225.788 431.564 L 225.957 431.367 L 226.21 431.317 L 226.506 431.415 L 227.055 431.808 L 227.097 432.251 L 227.35 432.742 L 227.309 432.989 L 227.814 433.088 L 227.941 433.579 L 228.702 433.923 L 228.702 434.267 L 228.659 434.71 L 228.491 435.25 L 228.575 435.644 L 228.744 436.382 L 228.532 436.874 L 228.532 436.923 L 228.11 436.874 L 227.519 436.087 L 227.097 435.89 L 226.675 435.84 L 226.464 435.644 L 227.013 435.35 L 227.35 435.053 L 227.181 434.563 L 226.675 434.218 L 226.168 434.316 L 225.577 434.366 L 225.196 434.513 L 224.479 434.956 L 224.099 434.808 L 223.297 433.972 L 222.874 433.825 L 222.325 433.382 L 221.861 432.939 L 221.608 432.448 L 221.481 431.71 L 221.143 431.415 L 220.763 431.415 L 220.551 431.317 L 220.594 431.17 L 220.551 430.628 L 220.256 430.186 L 220.087 429.743 L 220.129 429.301 L 220.425 429.399 L 220.509 429.596 L 220.763 429.793 L 221.523 430.235 L 221.987 430.776 L 222.199 431.12 L 222.241 431.71 L 222.241 432.005 L 222.621 432.498 L 222.959 432.841 Z M 223.888 428.169 L 223.888 428.662 L 223.761 429.153 L 223.846 429.596 L 224.479 429.793 L 224.691 430.333 L 223.846 430.333 L 223.634 430.727 L 223.761 431.12 L 224.226 431.317 L 224.521 431.513 L 224.901 431.71 L 225.027 432.301 L 225.027 432.596 L 224.437 432.202 L 223.719 431.906 L 223.339 431.858 L 223.043 431.564 L 222.283 430.383 L 221.692 429.399 L 221.903 429.153 L 222.368 429.153 L 222.747 429.006 L 223.001 428.759 L 223.212 428.317 L 223.423 428.366 L 223.55 427.875 L 223.381 427.285 L 222.874 426.989 L 222.621 426.989 L 222.156 426.841 L 221.903 426.841 L 221.861 426.744 L 221.987 426.547 L 222.199 426.448 L 222.241 426.645 L 222.874 426.744 L 223.381 426.941 L 223.761 427.432 L 223.888 428.169 Z M 251.841 414.991 L 251.039 415.581 L 249.308 417.302 L 248.337 418.679 L 248.295 418.827 L 249.435 419.269 L 249.815 419.613 L 250.026 420.154 L 249.941 420.597 L 249.519 420.892 L 249.055 420.99 L 248.505 421.285 L 248.126 421.629 L 247.999 422.121 L 247.999 422.712 L 247.873 423.203 L 247.492 424.137 L 247.366 424.678 L 247.45 425.072 L 247.577 425.465 L 247.704 426.007 L 247.704 426.547 L 247.619 426.989 L 247.281 427.924 L 247.155 428.563 L 247.239 428.956 L 247.661 429.891 L 247.914 430.824 L 248.126 431.021 L 248.886 431.267 L 249.097 431.464 L 249.223 431.71 L 249.223 432.054 L 249.139 432.301 L 249.013 432.399 L 248.843 432.498 L 248.632 432.645 L 248.337 433.185 L 248.379 433.529 L 248.591 433.875 L 248.717 434.464 L 248.591 434.956 L 248.252 435.005 L 247.45 434.71 L 246.944 434.611 L 246.69 434.759 L 246.605 435.103 L 246.564 435.595 L 246.479 436.037 L 245.973 437.661 L 245.718 438.054 L 245.296 438.448 L 244.409 439.038 L 244.114 439.184 L 243.312 439.332 L 243.1 439.431 L 243.059 439.775 L 243.1 440.119 L 243.1 440.513 L 242.932 440.906 L 242.425 441.349 L 241.75 441.692 L 240.778 442.086 L 240.737 442.037 L 240.737 441.153 L 240.609 440.906 L 240.863 440.119 L 240.737 439.627 L 239.765 438.349 L 239.554 437.808 L 239.469 437.316 L 239.512 436.284 L 239.723 435.25 L 239.723 434.759 L 239.385 434.66 L 239.512 434.513 L 239.258 434.218 L 239.047 433.875 L 239.005 433.529 L 239.216 433.332 L 239.089 433.088 L 238.541 432.498 L 238.414 432.349 L 238.16 431.906 L 237.696 431.267 L 237.569 431.17 L 236.936 430.727 L 236.725 430.727 L 236.514 430.874 L 235.837 429.743 L 236.091 428.662 L 235.964 428.268 L 235.964 427.088 L 235.88 426.645 L 235.5 426.399 L 235.415 426.054 L 235.246 425.858 L 234.867 425.81 L 234.444 425.858 L 234.191 425.81 L 233.938 425.564 L 233.727 425.17 L 233.473 424.481 L 233.388 424.137 L 233.305 423.302 L 233.178 422.957 L 233.009 422.76 L 232.123 422.318 L 232.164 422.76 L 232.291 423.105 L 232.671 423.793 L 232.249 424.137 L 232.459 425.712 L 232.249 426.154 L 232.123 425.661 L 232.123 423.989 L 232.037 423.499 L 231.784 422.515 L 231.404 419.221 L 231.193 418.187 L 231.32 416.959 L 231.278 416.465 L 231.15 415.926 L 231.024 415.679 L 230.813 415.581 L 230.432 415.532 L 230.349 415.434 L 230.306 415.187 L 230.179 414.942 L 228.026 412.729 L 227.857 412.679 L 227.814 412.827 L 227.646 412.582 L 227.435 412.089 L 227.055 411.45 L 226.928 411.008 L 226.844 410.86 L 226.717 410.762 L 226.253 410.86 L 226.041 410.811 L 225.957 410.516 L 225.873 410.271 L 224.986 409.238 L 224.817 409.335 L 224.563 409.385 L 224.395 409.189 L 223.761 408.157 L 223.55 408.008 L 222.368 406.73 L 221.946 406.927 L 221.185 406.287 L 220.721 406.386 L 220.551 405.746 L 220.172 405.352 L 219.75 405.009 L 219.369 404.517 L 218.525 403.287 L 218.398 402.844 L 218.441 402.55 L 218.483 402.305 L 218.441 402.108 L 218.061 401.96 L 218.019 401.37 L 217.173 400.485 L 216.836 399.943 L 217.047 399.501 L 216.92 399.353 L 217.3 398.321 L 217.512 397.878 L 217.807 397.485 L 218.187 397.19 L 219.412 396.403 L 219.791 395.96 L 220.046 395.566 L 220.383 394.584 L 222.664 394.387 L 223.423 394.633 L 223.634 395.027 L 223.719 395.469 L 223.761 395.96 L 223.339 398.911 L 223.297 399.501 L 223.339 400.042 L 223.508 400.73 L 223.846 401.075 L 224.226 401.222 L 225.577 400.976 L 225.999 401.026 L 226.464 401.173 L 227.013 401.518 L 227.309 401.911 L 227.435 402.206 L 227.688 403.091 L 227.9 403.583 L 228.322 404.173 L 228.744 404.468 L 229.208 404.565 L 232.333 404.615 L 232.84 404.762 L 233.388 405.107 L 233.768 405.599 L 234.022 406.091 L 234.191 406.631 L 234.402 407.173 L 234.74 407.763 L 236.64 410.025 L 237.105 410.418 L 237.569 410.614 L 237.991 410.614 L 238.329 410.468 L 238.624 410.074 L 238.794 409.631 L 239.723 405.599 L 240.146 404.615 L 240.441 404.123 L 240.778 403.681 L 241.623 402.992 L 242.552 402.353 L 242.721 402.305 L 243.481 402.501 L 243.734 402.844 L 243.86 403.337 L 243.777 404.32 L 243.903 404.959 L 244.241 405.549 L 245.803 407.024 L 246.268 407.614 L 246.564 408.157 L 247.197 409.681 L 247.492 410.172 L 247.873 410.516 L 249.435 411.156 L 249.815 411.549 L 250.153 412.04 L 251.841 414.991 Z" id="SAU887" name="Jizan" style="paint-order: fill; fill-rule: nonzero; fill: rgb(255, 233, 209);"/>
  <path d="M 224.691 253.601 L 224.521 256.011 L 224.563 257.634 L 224.691 258.126 L 224.943 258.518 L 225.155 258.764 L 225.915 259.257 L 226.337 259.65 L 226.717 260.142 L 227.139 260.929 L 228.195 264.96 L 228.702 266.288 L 228.871 266.928 L 229.462 270.567 L 232.037 277.745 L 232.249 278.09 L 232.545 278.484 L 232.924 278.876 L 233.346 279.172 L 233.768 279.418 L 234.191 279.566 L 234.951 279.713 L 238.033 279.663 L 242.383 280.057 L 243.312 280.302 L 243.777 280.499 L 244.283 280.794 L 244.832 281.336 L 245.127 281.877 L 245.212 282.368 L 245.127 282.81 L 244.832 283.942 L 244.705 286.499 L 244.705 287.138 L 244.832 287.777 L 245.296 288.712 L 245.718 289.155 L 246.141 289.498 L 247.027 289.843 L 247.492 289.891 L 247.957 289.843 L 250.322 289.105 L 250.744 289.007 L 251.209 289.056 L 253.573 289.548 L 253.996 289.745 L 254.375 289.941 L 254.713 290.335 L 254.713 290.482 L 254.164 294.17 L 254.164 295.203 L 255.135 303.611 L 255.135 304.103 L 255.093 304.644 L 254.967 305.185 L 254.755 305.677 L 254.502 306.168 L 253.91 307.103 L 253.657 307.546 L 253.488 308.037 L 253.446 308.579 L 253.7 312.759 L 253.573 313.84 L 252.771 317.478 L 252.728 317.971 L 252.771 318.511 L 252.897 319.003 L 253.109 319.543 L 258.345 328.641 L 256.233 329.625 L 253.066 331.789 L 252.391 332.083 L 251.8 332.133 L 250.491 331.592 L 249.984 331.493 L 249.435 331.443 L 248.548 331.543 L 247.914 331.789 L 246.69 332.379 L 246.31 332.526 L 245.973 332.624 L 244.748 332.624 L 244.029 332.821 L 243.481 333.067 L 242.974 333.461 L 242.214 334.394 L 241.623 334.935 L 237.654 337.443 L 232.587 342.852 L 231.911 343.393 L 230.855 344.082 L 230.179 344.377 L 229.588 344.426 L 229.166 344.229 L 228.744 343.934 L 228.364 343.541 L 228.026 343.049 L 225.999 338.132 L 225.619 337.443 L 224.479 336.313 L 224.099 336.116 L 223.592 336.017 L 223.169 336.165 L 221.312 337.394 L 220.89 337.64 L 220.425 337.787 L 218.314 337.787 L 217.638 337.886 L 217.132 338.082 L 216.118 338.525 L 215.527 338.721 L 215.105 338.721 L 214.851 338.624 L 214.555 338.329 L 214.302 337.886 L 214.05 337.394 L 213.458 335.329 L 213.12 334.837 L 212.698 334.394 L 212.064 334.1 L 211.6 334.001 L 211.093 334.051 L 210.671 334.248 L 210.291 334.641 L 209.953 335.034 L 209.784 335.378 L 209.658 335.673 L 209.573 336.116 L 209.531 336.607 L 209.531 337.149 L 209.7 338.181 L 210.08 339.657 L 210.122 340.394 L 210.122 340.639 L 209.953 341.278 L 208.56 344.278 L 208.011 345.901 L 207.757 346.393 L 207.25 346.885 L 206.787 347.131 L 206.322 347.278 L 204.379 347.672 L 203.788 347.868 L 203.281 348.163 L 202.817 348.556 L 201.296 350.424 L 201.001 350.867 L 200.959 351.36 L 201.085 351.802 L 201.423 352.196 L 201.804 352.441 L 203.281 352.982 L 203.535 353.229 L 203.788 353.621 L 204 354.113 L 204.126 354.653 L 204.126 355.196 L 203.914 357.703 L 203.914 358.245 L 204.295 359.866 L 204.337 360.359 L 204.253 362.424 L 204.253 362.867 L 204.337 363.407 L 204.591 363.899 L 204.886 364.243 L 205.097 364.439 L 206.66 365.423 L 207.123 365.964 L 208.391 367.931 L 208.813 368.325 L 209.278 368.57 L 209.827 368.718 L 210.291 368.718 L 210.755 368.62 L 211.178 368.472 L 211.558 368.226 L 211.937 367.882 L 212.191 367.44 L 212.359 366.947 L 212.824 364.292 L 214.091 360.309 L 214.641 359.227 L 214.894 358.884 L 215.063 358.687 L 215.443 358.489 L 215.823 358.441 L 217.723 358.441 L 218.398 358.292 L 218.947 357.997 L 219.834 357.605 L 220.679 357.506 L 221.059 357.605 L 221.354 357.752 L 221.608 357.949 L 221.903 358.391 L 222.156 358.884 L 222.283 359.424 L 222.325 359.916 L 222.283 360.407 L 221.65 363.604 L 221.608 364.194 L 221.692 364.882 L 221.776 365.375 L 222.621 367.047 L 222.747 367.637 L 222.747 368.226 L 222.073 370.783 L 221.903 371.226 L 221.608 371.669 L 221.228 372.013 L 220.89 372.16 L 220.551 372.259 L 220.299 372.259 L 218.061 372.013 L 217.638 372.013 L 217.173 372.111 L 216.751 372.259 L 215.865 372.898 L 214.851 373.783 L 214.472 373.98 L 214.091 373.98 L 213.669 373.734 L 213.331 373.439 L 213.036 373.242 L 212.867 373.488 L 212.782 373.93 L 212.656 379.684 L 212.782 380.717 L 212.867 381.208 L 213.036 381.699 L 213.289 382.192 L 213.627 382.634 L 214.007 382.88 L 214.387 382.979 L 216.582 382.979 L 217.469 383.028 L 218.314 383.225 L 218.736 383.421 L 219.116 383.667 L 219.455 384.06 L 219.665 384.553 L 221.016 389.42 L 221.185 390.158 L 221.185 390.797 L 221.101 391.485 L 220.383 394.584 L 220.046 395.566 L 219.791 395.96 L 219.412 396.403 L 218.187 397.19 L 217.807 397.485 L 217.512 397.878 L 217.3 398.321 L 216.92 399.353 L 216.668 399.01 L 216.54 398.714 L 216.498 398.419 L 216.414 398.271 L 216.203 398.174 L 216.118 398.026 L 216.203 397.632 L 215.78 397.584 L 215.4 397.485 L 215.527 397.238 L 215.654 397.141 L 215.527 396.846 L 215.358 396.698 L 215.105 396.698 L 214.851 396.797 L 215.063 396.354 L 215.105 396.157 L 214.978 395.96 L 215.105 395.617 L 214.978 395.469 L 214.724 395.42 L 214.429 395.469 L 214.472 395.124 L 214.429 394.633 L 214.26 394.19 L 214.091 393.846 L 214.007 393.552 L 213.88 392.617 L 213.753 392.224 L 213.753 390.896 L 213.627 390.65 L 213.416 390.601 L 213.289 390.502 L 213.247 390.06 L 213.205 389.912 L 212.487 389.322 L 212.359 389.175 L 212.359 388.879 L 212.233 388.585 L 212.106 388.339 L 211.769 388.191 L 211.558 387.896 L 211.431 387.946 L 211.22 388.191 L 211.135 388.24 L 210.924 388.142 L 210.671 387.994 L 210.502 387.749 L 210.333 387.552 L 209.784 386.125 L 209.573 385.781 L 209.319 385.438 L 209.193 385.142 L 209.15 384.847 L 209.236 384.356 L 209.7 382.733 L 209.784 382.241 L 209.827 382.045 L 209.91 381.946 L 209.953 381.798 L 209.784 381.455 L 209.7 381.455 L 209.236 381.159 L 209.236 381.11 L 208.391 380.864 L 208.18 380.126 L 208.18 379.979 L 207.8 379.34 L 207.715 379.29 L 207.673 379.044 L 207.715 378.75 L 207.842 378.257 L 207.926 378.012 L 208.095 377.618 L 208.137 377.176 L 208.264 376.635 L 208.517 376.045 L 208.348 375.701 L 207.969 375.406 L 207.546 375.209 L 206.701 374.914 L 206.364 374.619 L 206.153 373.93 L 205.857 373.439 L 205.773 373.193 L 205.773 372.898 L 205.941 372.356 L 205.941 372.111 L 205.815 371.669 L 205.773 371.423 L 205.688 371.177 L 205.351 370.931 L 205.224 370.735 L 205.139 370.193 L 204.928 369.948 L 204.632 369.751 L 204.083 369.258 L 204.169 368.865 L 204.126 368.62 L 203.914 368.226 L 203.831 367.735 L 203.746 367.341 L 203.746 367.096 L 203.873 366.85 L 204.041 366.653 L 204.169 366.457 L 204 366.259 L 204.083 365.964 L 204.041 365.718 L 203.914 365.522 L 203.873 365.226 L 202.141 364.489 L 201.677 364.194 L 200.663 362.965 L 200.199 362.671 L 200.199 362.522 L 200.41 362.571 L 200.874 362.867 L 201.001 361.834 L 200.917 360.604 L 200.79 360.063 L 199.861 358.489 L 199.481 358.194 L 198.467 358.048 L 198.046 358.096 L 197.876 358.292 L 198.087 358.932 L 197.792 358.637 L 197.538 358.145 L 197.37 357.654 L 197.37 357.408 L 197.073 357.211 L 196.272 355.786 L 195.638 355.343 L 195.512 355.196 L 195.512 354.999 L 195.765 354.359 L 195.68 353.916 L 195.428 353.672 L 194.794 353.326 L 194.076 352.785 L 193.864 352.736 L 193.696 352.392 L 193.359 352.196 L 192.851 351.36 L 192.682 351.261 L 192.176 351.114 L 192.007 351.114 L 191.627 351.015 L 191.246 350.72 L 190.318 349.884 L 189.6 348.901 L 189.727 348.556 L 189.389 348.262 L 188.883 348.114 L 188.249 348.016 L 188.164 347.868 L 187.954 347.573 L 187.657 347.229 L 187.489 346.983 L 187.489 346.885 L 187.278 346.737 L 186.644 346.048 L 186.306 345.851 L 185.884 345.851 L 185.378 345.951 L 184.955 346.147 L 184.787 346.344 L 184.322 346.147 L 183.478 345.557 L 183.013 345.312 L 183.055 345.607 L 183.182 345.803 L 183.519 346.098 L 183.773 346.294 L 183.9 346.441 L 183.773 346.541 L 183.435 346.441 L 181.492 345.016 L 181.196 344.721 L 180.944 344.573 L 180.522 344.475 L 180.183 344.278 L 179.846 343.492 L 179.508 343.099 L 178.452 342.115 L 177.904 341.475 L 176.721 339.264 L 176.299 338.869 L 176.299 338.673 L 176.51 338.673 L 176.679 338.673 L 176.805 338.525 L 176.847 338.329 L 176.552 338.279 L 176.299 338.082 L 175.834 337.591 L 175.708 337.295 L 175.581 336.559 L 175.496 336.313 L 174.821 335.427 L 174.778 334.984 L 175.074 334.394 L 174.398 334.148 L 174.103 334.1 L 174.145 334.248 L 174.145 334.444 L 173.681 334.148 L 173.428 333.755 L 173.554 333.361 L 173.385 333.264 L 173.301 333.116 L 173.301 332.919 L 173.428 332.722 L 173.512 332.919 L 173.681 333.067 L 173.892 333.165 L 174.103 333.214 L 174.019 332.919 L 173.934 332.379 L 173.724 332.427 L 173.554 332.379 L 173.301 331.886 L 173.173 331.886 L 173.173 332.379 L 172.751 332.034 L 172.16 331.493 L 171.738 330.903 L 171.78 330.313 L 172.034 330.608 L 172.16 330.657 L 172.203 330.461 L 172.119 330.165 L 172.034 330.068 L 171.865 330.018 L 171.528 329.772 L 171.316 329.821 L 170.894 329.969 L 170.894 329.871 L 170.345 328.838 L 170.218 328.494 L 170.133 328.051 L 170.133 327.461 L 170.092 327.264 L 169.796 327.017 L 169.754 326.821 L 169.711 326.477 L 169.627 326.379 L 169.501 326.33 L 168.655 325.641 L 168.445 325.346 L 168.318 324.658 L 168.149 324.165 L 168.107 323.871 L 168.149 323.772 L 168.318 323.428 L 168.36 323.281 L 168.233 322.937 L 167.474 321.56 L 167.22 321.363 L 166.587 320.183 L 168.149 318.561 L 168.402 317.971 L 168.402 317.184 L 168.276 316.446 L 167.937 316.053 L 167.937 315.905 L 168.192 315.708 L 168.149 315.363 L 167.811 314.528 L 167.558 315.069 L 167.346 315.118 L 167.178 314.872 L 166.966 314.332 L 167.136 314.184 L 166.798 313.643 L 166.755 312.905 L 166.755 312.119 L 166.714 311.43 L 166.502 310.741 L 166.544 310.397 L 166.924 310.201 L 167.051 310.054 L 167.136 309.758 L 167.136 309.364 L 166.966 309.02 L 166.84 309.561 L 166.714 309.758 L 166.587 309.906 L 166.292 309.906 L 166.249 309.807 L 166.249 309.611 L 166.164 309.364 L 165.869 309.07 L 165.784 308.873 L 165.7 308.627 L 165.7 308.233 L 165.615 307.988 L 165.362 307.84 L 165.193 307.496 L 164.518 306.464 L 163.969 304.988 L 163.588 302.873 L 163.631 302.382 L 164.137 302.136 L 164.687 302.923 L 165.067 302.973 L 165.151 302.382 L 165.151 301.89 L 165.193 301.645 L 165.573 301.3 L 165.615 301.202 L 165.658 300.711 L 165.869 299.726 L 165.911 299.186 L 165.784 299.186 L 165.489 300.071 L 165.362 299.677 L 165.405 299.431 L 165.531 299.137 L 165.615 298.793 L 165.615 297.76 L 165.784 297.072 L 166.418 296.186 L 166.629 295.104 L 166.755 294.858 L 166.966 294.661 L 167.136 294.367 L 167.389 293.677 L 167.769 293.284 L 167.811 293.187 L 167.811 292.843 L 167.727 292.547 L 167.515 292.4 L 167.263 292.449 L 167.136 292.695 L 166.966 293.432 L 166.84 293.677 L 166.375 293.777 L 166.333 293.088 L 166.587 292.006 L 166.46 290.63 L 166.587 289.204 L 166.46 288.515 L 166.292 288.17 L 165.741 287.286 L 165.193 285.909 L 164.813 285.122 L 164.687 284.729 L 164.728 284.433 L 165.236 283.843 L 165.236 283.647 L 164.264 282.417 L 163.884 282.024 L 163.715 282.171 L 163.757 282.271 L 164.137 282.712 L 164.264 282.958 L 164.306 283.204 L 164.391 283.745 L 164.518 283.991 L 164.391 284.188 L 164.096 283.45 L 163.546 282.417 L 162.997 281.729 L 161.984 279.516 L 161.984 279.172 L 162.575 279.566 L 163.209 281.237 L 163.588 281.384 L 163.8 281.532 L 163.969 281.484 L 164.137 281.336 L 164.264 281.04 L 164.053 280.745 L 163.715 279.959 L 163.335 279.762 L 163.209 279.566 L 163.082 279.319 L 162.997 279.024 L 162.828 278.631 L 162.449 278.434 L 161.984 278.336 L 161.646 278.09 L 161.266 278.188 L 160.97 277.795 L 160.548 276.713 L 160.76 276.467 L 160.928 276.123 L 161.055 275.729 L 161.097 275.386 L 161.055 274.647 L 160.928 274.253 L 160.928 273.959 L 160.675 273.861 L 160.506 274.206 L 160.253 273.665 L 159.914 273.123 L 159.535 272.288 L 159.197 271.796 L 159.028 271.206 L 158.774 270.812 L 158.733 270.467 L 158.564 270.025 L 158.564 269.681 L 158.437 268.943 L 158.142 268.304 L 157.888 267.566 L 157.846 267.124 L 158.437 267.026 L 160.928 266.78 L 162.364 266.436 L 162.955 266.337 L 163.504 266.534 L 163.884 266.976 L 164.728 268.55 L 164.982 268.894 L 166.587 270.567 L 168.149 272.729 L 168.614 273.172 L 169.078 273.517 L 169.754 273.665 L 170.555 273.615 L 172.668 273.172 L 173.259 273.172 L 173.638 273.419 L 173.85 273.861 L 173.934 274.353 L 174.019 275.386 L 174.229 275.779 L 174.694 276.024 L 176.214 275.68 L 180.479 274.156 L 182.379 273.861 L 182.801 273.91 L 183.223 274.057 L 183.604 274.402 L 183.814 274.844 L 183.942 275.337 L 184.026 275.779 L 184.069 276.565 L 183.9 277.795 L 183.814 278.237 L 182.717 281.287 L 182.591 281.778 L 182.675 282.271 L 182.928 282.712 L 183.309 282.909 L 184.66 283.401 L 185.251 283.745 L 185.631 284.039 L 186.01 284.482 L 186.306 284.975 L 186.518 285.466 L 186.602 286.007 L 186.644 286.547 L 186.518 287.63 L 186.306 288.661 L 186.264 289.155 L 186.349 289.646 L 186.56 290.088 L 186.983 290.383 L 187.066 290.383 L 188.376 290.63 L 188.84 290.63 L 189.262 290.58 L 189.769 290.433 L 190.275 290.088 L 192.302 288.072 L 193.147 287.483 L 193.781 287.335 L 194.245 287.383 L 197.328 288.515 L 197.792 288.465 L 198.256 288.22 L 198.805 287.58 L 200.241 284.975 L 201.001 283.892 L 206.701 278.631 L 209.488 275.386 L 210.122 274.796 L 210.671 274.353 L 212.993 273.369 L 213.458 273.075 L 213.838 272.582 L 214.05 271.845 L 213.922 271.304 L 213.585 270.91 L 211.389 269.533 L 210.967 269.14 L 210.629 268.698 L 210.502 268.156 L 210.713 267.518 L 211.304 266.78 L 212.191 265.994 L 214.81 264.272 L 218.356 262.453 L 218.821 262.01 L 219.328 261.468 L 219.834 260.485 L 220.129 259.847 L 220.256 259.207 L 220.299 258.077 L 220.256 257.535 L 220.172 256.994 L 219.665 255.322 L 219.623 254.782 L 219.707 254.29 L 219.96 253.797 L 220.383 253.454 L 220.805 253.257 L 222.073 253.158 L 224.691 253.601 Z" id="SAU888" name="Makkah" style="paint-order: fill; fill-rule: nonzero; fill: rgb(255, 233, 209);"/>
  <circle cx="417.5" cy="746.6" id="0"/>
  <circle cx="553.4" cy="501.8" id="1"/>
  <circle cx="391.4" cy="787.9" id="2"/>
  <text style="white-space: pre; fill: rgb(51, 51, 51); font-family: Arial, sans-serif; font-size: 28px;" transform="matrix(0.914159, 0, 0, 0.914158, 551.817688, 206.670242)">Enter your text here</text>
  <path d="M 143.096 186.96 H 202.697 L 202.697 186.96 L 203.697 187.46 L 202.697 187.96 L 202.697 187.96 H 143.096 V 186.96 Z" style="fill: rgb(216, 216, 216); stroke: rgb(123, 81, 165);" transform="matrix(-0.273277, -0.961935, 0.961935, -0.273277, 1.876621, 376.337097)" bx:shape="arrow 143.096 186.96 60.601 1 1 1 0 1@3b88490f"/>
  <path d="M 126.535 128.666 H 182.508 L 182.508 128.666 L 183.508 129.166 L 182.508 129.666 L 182.508 129.666 H 126.535 V 128.666 Z" style="fill: rgb(216, 216, 216); stroke: rgb(123, 81, 165);" transform="matrix(-0.999932, -0.011627, 0.011627, -0.999932, 251.559906, 259.793518)" bx:shape="arrow 126.535 128.666 56.973 1 1 1 0 1@ff2042a2"/>
  <text style="fill: rgb(123, 81, 165); font-family: Arial, sans-serif; font-size: 149.33px; white-space: pre;" transform="matrix(0.154022, 0, 0, 0.154021, 12.426723, 135.987885)">AlUla</text>
</svg>